0
SECTION
2
HEADER
9
$ACADVER
1
AC2.10
9
$LIMMAX
10
304.789456
20
-16.883324
9
$LIMMIN
10
18.389475
20
-385.283343
0
ENDSEC
0
SECTION
2
TABLES
0
TABLE
2
LTYPE
0
LTYPE
70
1
2
CONTINUOUS
3
Solid Line
72
65
73
0
40
0.000000
0
ENDTAB
0
TABLE
2
LAYER
70
144
0
LAYER
2
4
70
64
62
4
6
CONTINUOUS
0
LAYER
2
5
70
64
62
5
6
CONTINUOUS
0
LAYER
2
2
70
64
62
1
6
CONTINUOUS
0
LAYER
2
3
70
64
62
2
6
CONTINUOUS
0
LAYER
2
1
70
64
62
12
6
CONTINUOUS
0
LAYER
2
0
70
64
62
7
6
CONTINUOUS
0
ENDTAB
0
TABLE
2
STYLE
70
1
0
STYLE
2
STANDARD
70
0
40
0.000000
41
1.000000
50
0.000000
71
0
42
0.200000
3
TXT
0
ENDTAB
0
TABLE
2
VIEW
70
0
0
ENDTAB
0
ENDSEC
0
SECTION
2
BLOCKS
0
ENDSEC
0
SECTION
2
ENTITIES
0
LINE
8
2
62
1
10
80.489452
20
-78.983321
11
77.489463
21
-73.787170
0
LINE
8
2
62
1
10
77.489463
20
-73.787170
11
74.489474
21
-63.983322
0
LINE
8
2
62
1
10
74.489474
20
-63.983322
11
61.439467
21
-63.983322
0
LINE
8
2
62
1
10
57.439467
20
-63.983322
11
44.389459
21
-63.983322
0
LINE
8
2
62
1
10
44.389459
20
-63.983322
11
41.389470
21
-73.787170
0
LINE
8
2
62
1
10
41.389470
20
-73.787170
11
38.389460
21
-78.983321
0
LINE
8
2
62
1
10
38.389460
20
-78.983321
11
37.289462
21
-80.083324
0
LINE
8
2
62
1
10
37.289462
20
-80.083324
11
29.839468
21
-80.083324
0
LINE
8
2
62
1
10
25.839468
20
-80.083324
11
18.389475
21
-80.083324
0
LINE
8
2
62
1
10
18.389475
20
-80.083324
11
18.389475
21
-108.333324
0
LINE
8
2
62
1
10
18.389475
20
-112.333324
11
18.389475
21
-168.833324
0
LINE
8
2
62
1
10
18.389475
20
-172.833324
11
18.389475
21
-229.333324
0
LINE
8
2
62
1
10
18.389475
20
-233.333324
11
18.389475
21
-289.833325
0
LINE
8
2
62
1
10
18.389475
20
-293.833325
11
18.389475
21
-322.083325
0
LINE
8
2
62
1
10
18.389475
20
-322.083325
11
25.839468
21
-322.083325
0
LINE
8
2
62
1
10
29.839468
20
-322.083325
11
37.289462
21
-322.083325
0
LINE
8
2
62
1
10
37.289462
20
-322.083325
11
38.389460
21
-323.183322
0
LINE
8
2
62
1
10
38.389460
20
-323.183322
11
41.389470
21
-328.379473
0
LINE
8
2
62
1
10
41.389470
20
-328.379473
11
44.389459
21
-338.183332
0
LINE
8
2
62
1
10
44.389459
20
-338.183332
11
57.439467
21
-338.183332
0
LINE
8
2
62
1
10
61.439467
20
-338.183332
11
74.489474
21
-338.183332
0
LINE
8
2
62
1
10
74.489474
20
-338.183332
11
77.489463
21
-328.379473
0
LINE
8
2
62
1
10
77.489463
20
-328.379473
11
80.489452
21
-323.183322
0
LINE
8
2
62
1
10
80.489452
20
-323.183322
11
81.539474
21
-327.101967
0
LINE
8
2
62
1
10
81.539474
20
-327.101967
11
81.539474
21
-344.192641
0
LINE
8
2
62
1
10
81.539474
20
-348.192641
11
81.539474
21
-365.283315
0
LINE
8
2
62
1
10
81.539474
20
-365.283315
11
83.089466
21
-367.333319
0
LINE
8
2
62
1
10
83.089466
20
-367.333319
11
83.089466
21
-374.308331
0
LINE
8
2
62
1
10
83.089466
20
-378.308331
11
83.089466
21
-385.283343
0
LINE
8
2
62
1
10
83.089466
20
-385.283343
11
107.256136
21
-385.283343
0
LINE
8
2
62
1
10
111.256136
20
-385.283343
11
159.589476
21
-385.283343
0
LINE
8
2
62
1
10
163.589476
20
-385.283343
11
211.922816
21
-385.283343
0
LINE
8
2
62
1
10
215.922816
20
-385.283343
11
240.089487
21
-385.283343
0
LINE
8
2
62
1
10
240.089487
20
-385.283343
11
240.089487
21
-378.308331
0
LINE
8
2
62
1
10
240.089487
20
-374.308331
11
240.089487
21
-367.333319
0
LINE
8
2
62
1
10
240.089487
20
-367.333319
11
241.639478
21
-365.283315
0
LINE
8
2
62
1
10
241.639478
20
-365.283315
11
241.639478
21
-348.192641
0
LINE
8
2
62
1
10
241.639478
20
-344.192641
11
241.639478
21
-327.101967
0
LINE
8
2
62
1
10
241.639478
20
-327.101967
11
242.689457
21
-323.183322
0
LINE
8
2
62
1
10
242.689457
20
-323.183322
11
245.689446
21
-328.379473
0
LINE
8
2
62
1
10
245.689446
20
-328.379473
11
248.689478
21
-338.183332
0
LINE
8
2
62
1
10
248.689478
20
-338.183332
11
261.739464
21
-338.183332
0
LINE
8
2
62
1
10
265.739464
20
-338.183332
11
278.789450
21
-338.183332
0
LINE
8
2
62
1
10
278.789450
20
-338.183332
11
281.789482
21
-328.379473
0
LINE
8
2
62
1
10
281.789482
20
-328.379473
11
284.789471
21
-323.183322
0
LINE
8
2
62
1
10
284.789471
20
-323.183322
11
285.889447
21
-322.083325
0
LINE
8
2
62
1
10
285.889447
20
-322.083325
11
293.339452
21
-322.083325
0
LINE
8
2
62
1
10
297.339452
20
-322.083325
11
304.789456
21
-322.083325
0
LINE
8
2
62
1
10
304.789456
20
-322.083325
11
304.789456
21
-293.833325
0
LINE
8
2
62
1
10
304.789456
20
-289.833325
11
304.789456
21
-233.333325
0
LINE
8
2
62
1
10
304.789456
20
-229.333325
11
304.789456
21
-172.833324
0
LINE
8
2
62
1
10
304.789456
20
-168.833324
11
304.789456
21
-112.333324
0
LINE
8
2
62
1
10
304.789456
20
-108.333324
11
304.789456
21
-80.083324
0
LINE
8
2
62
1
10
304.789456
20
-80.083324
11
297.339452
21
-80.083324
0
LINE
8
2
62
1
10
293.339452
20
-80.083324
11
285.889447
21
-80.083324
0
LINE
8
2
62
1
10
285.889447
20
-80.083324
11
284.789471
21
-78.983321
0
LINE
8
2
62
1
10
284.789471
20
-78.983321
11
281.789482
21
-73.787170
0
LINE
8
2
62
1
10
281.789482
20
-73.787170
11
278.789450
21
-63.983322
0
LINE
8
2
62
1
10
278.789450
20
-63.983322
11
265.739464
21
-63.983322
0
LINE
8
2
62
1
10
261.739464
20
-63.983322
11
248.689478
21
-63.983322
0
LINE
8
2
62
1
10
248.689478
20
-63.983322
11
245.689446
21
-73.787170
0
LINE
8
2
62
1
10
245.689446
20
-73.787170
11
242.689457
21
-78.983321
0
LINE
8
2
62
1
10
242.689457
20
-78.983321
11
241.639478
21
-75.064671
0
LINE
8
2
62
1
10
241.639478
20
-75.064671
11
241.639478
21
-57.973997
0
LINE
8
2
62
1
10
241.639478
20
-53.973997
11
241.639478
21
-36.883323
0
LINE
8
2
62
1
10
241.639478
20
-36.883323
11
240.089487
21
-34.833323
0
LINE
8
2
62
1
10
240.089487
20
-34.833323
11
240.089487
21
-27.858324
0
LINE
8
2
62
1
10
240.089487
20
-23.858324
11
240.089487
21
-16.883324
0
LINE
8
2
62
1
10
240.089487
20
-16.883324
11
215.922816
21
-16.883324
0
LINE
8
2
62
1
10
211.922816
20
-16.883324
11
163.589476
21
-16.883324
0
LINE
8
2
62
1
10
159.589476
20
-16.883324
11
111.256136
21
-16.883324
0
LINE
8
2
62
1
10
107.256136
20
-16.883324
11
83.089466
21
-16.883324
0
LINE
8
2
62
1
10
83.089466
20
-16.883324
11
83.089466
21
-23.858324
0
LINE
8
2
62
1
10
83.089466
20
-27.858324
11
83.089466
21
-34.833323
0
LINE
8
2
62
1
10
83.089466
20
-34.833323
11
81.539474
21
-36.883323
0
LINE
8
2
62
1
10
81.539474
20
-36.883323
11
81.539474
21
-53.973997
0
LINE
8
2
62
1
10
81.539474
20
-57.973997
11
81.539474
21
-75.064671
0
LINE
8
2
62
1
10
81.539474
20
-75.064671
11
80.489452
21
-78.983321
0
ENDSEC
0
EOF
