0
SECTION
2
HEADER
9
$ACADVER
1
AC2.10
9
$LIMMAX
10
257.500014
20
291.737909
9
$LIMMIN
10
-47.500011
20
-33.262111
0
ENDSEC
0
SECTION
2
TABLES
0
TABLE
2
LTYPE
0
LTYPE
70
1
2
CONTINUOUS
3
Solid Line
72
65
73
0
40
0.000000
0
ENDTAB
0
TABLE
2
LAYER
70
148
0
LAYER
2
4
70
64
62
4
6
CONTINUOUS
0
LAYER
2
5
70
64
62
5
6
CONTINUOUS
0
LAYER
2
2
70
64
62
1
6
CONTINUOUS
0
LAYER
2
3
70
64
62
2
6
CONTINUOUS
0
LAYER
2
1
70
64
62
12
6
CONTINUOUS
0
LAYER
2
0
70
64
62
7
6
CONTINUOUS
0
ENDTAB
0
TABLE
2
STYLE
70
1
0
STYLE
2
STANDARD
70
0
40
0.000000
41
1.000000
50
0.000000
71
0
42
0.200000
3
TXT
0
ENDTAB
0
TABLE
2
VIEW
70
0
0
ENDTAB
0
ENDSEC
0
SECTION
2
BLOCKS
0
ENDSEC
0
SECTION
2
ENTITIES
0
LINE
8
3
62
2
10
257.500014
20
223.437909
11
257.500014
21
194.037905
0
LINE
8
3
62
2
10
257.500014
20
190.037905
11
257.500014
21
131.237899
0
LINE
8
3
62
2
10
257.500014
20
127.237899
11
257.500014
21
68.437892
0
LINE
8
3
62
2
10
257.500014
20
64.437892
11
257.500014
21
35.037889
0
LINE
8
3
62
2
10
257.500014
20
35.037889
11
242.000014
21
35.037889
0
LINE
8
3
62
2
10
238.000014
20
35.037889
11
207.000013
21
35.037889
0
LINE
8
3
62
2
10
203.000013
20
35.037889
11
187.500013
21
35.037889
0
LINE
8
3
62
2
10
22.499990
20
-33.262111
11
47.999994
21
-33.262111
0
LINE
8
3
62
2
10
51.999994
20
-33.262111
11
103.000002
21
-33.262111
0
LINE
8
3
62
2
10
107.000002
20
-33.262111
11
158.000009
21
-33.262111
0
LINE
8
3
62
2
10
162.000009
20
-33.262111
11
187.500013
21
-33.262111
0
LINE
8
3
62
2
10
187.500013
20
-33.262111
11
187.500013
21
-17.762111
0
LINE
8
3
62
2
10
187.500013
20
-13.762111
11
187.500013
21
17.237889
0
LINE
8
3
62
2
10
187.500013
20
21.237889
11
187.500013
21
36.737890
0
LINE
8
3
62
2
10
187.500013
20
223.437909
11
203.000013
21
223.437909
0
LINE
8
3
62
2
10
207.000013
20
223.437909
11
238.000014
21
223.437909
0
LINE
8
3
62
2
10
242.000014
20
223.437909
11
257.500014
21
223.437909
0
LINE
8
3
62
2
10
187.500013
20
291.737909
11
187.500013
21
276.237909
0
LINE
8
3
62
2
10
187.500013
20
272.237909
11
187.500013
21
241.237908
0
LINE
8
3
62
2
10
187.500013
20
237.237908
11
187.500013
21
221.737908
0
LINE
8
3
62
2
10
22.499990
20
291.737909
11
47.999994
21
291.737909
0
LINE
8
3
62
2
10
51.999994
20
291.737909
11
103.000002
21
291.737909
0
LINE
8
3
62
2
10
107.000002
20
291.737909
11
158.000009
21
291.737909
0
LINE
8
3
62
2
10
162.000009
20
291.737909
11
187.500013
21
291.737909
0
LINE
8
3
62
2
10
-47.500011
20
223.437909
11
-32.000011
21
223.437909
0
LINE
8
3
62
2
10
-28.000011
20
223.437909
11
2.999990
21
223.437909
0
LINE
8
3
62
2
10
6.999990
20
223.437909
11
22.499990
21
223.437909
0
LINE
8
3
62
2
10
22.499990
20
221.737908
11
22.499990
21
237.237908
0
LINE
8
3
62
2
10
22.499990
20
241.237908
11
22.499990
21
272.237909
0
LINE
8
3
62
2
10
22.499990
20
276.237909
11
22.499990
21
291.737909
0
LINE
8
3
62
2
10
22.499990
20
35.037889
11
6.999990
21
35.037889
0
LINE
8
3
62
2
10
2.999990
20
35.037889
11
-28.000011
21
35.037889
0
LINE
8
3
62
2
10
-32.000011
20
35.037889
11
-47.500011
21
35.037889
0
LINE
8
3
62
2
10
22.499990
20
36.737890
11
22.499990
21
21.237889
0
LINE
8
3
62
2
10
22.499990
20
17.237889
11
22.499990
21
-13.762111
0
LINE
8
3
62
2
10
22.499990
20
-17.762111
11
22.499990
21
-33.262111
0
LINE
8
3
62
2
10
-47.500011
20
35.037889
11
-47.500011
21
64.437892
0
LINE
8
3
62
2
10
-47.500011
20
68.437892
11
-47.500011
21
127.237899
0
LINE
8
3
62
2
10
-47.500011
20
131.237899
11
-47.500011
21
190.037905
0
LINE
8
3
62
2
10
-47.500011
20
194.037905
11
-47.500011
21
223.437909
0
ARC
8
2
62
1
10
4.499998
20
196.737887
40
4.999990
50
96.875507
51
263.124493
0
ARC
8
2
62
1
10
4.499998
20
196.737887
40
4.999990
50
276.875507
51
83.124493
0
ARC
8
2
62
1
10
4.499998
20
61.737910
40
4.999990
50
96.875507
51
263.124493
0
ARC
8
2
62
1
10
4.499998
20
61.737910
40
4.999990
50
276.875507
51
83.124493
0
ENDSEC
0
EOF
