0
SECTION
2
HEADER
9
$ACADVER
1
AC2.10
9
$LIMMAX
10
306.559596
20
439.980957
9
$LIMMIN
10
-0.189916
20
52.847412
0
ENDSEC
0
SECTION
2
TABLES
0
TABLE
2
LTYPE
0
LTYPE
70
1
2
CONTINUOUS
3
Solid Line
72
65
73
0
40
0.000000
0
ENDTAB
0
TABLE
2
LAYER
70
146
0
LAYER
2
4
70
64
62
4
6
CONTINUOUS
0
LAYER
2
5
70
64
62
5
6
CONTINUOUS
0
LAYER
2
2
70
64
62
1
6
CONTINUOUS
0
LAYER
2
3
70
64
62
2
6
CONTINUOUS
0
LAYER
2
1
70
64
62
12
6
CONTINUOUS
0
LAYER
2
0
70
64
62
7
6
CONTINUOUS
0
ENDTAB
0
TABLE
2
STYLE
70
1
0
STYLE
2
STANDARD
70
0
40
0.000000
41
1.000000
50
0.000000
71
0
42
0.200000
3
TXT
0
ENDTAB
0
TABLE
2
VIEW
70
0
0
ENDTAB
0
ENDSEC
0
SECTION
2
BLOCKS
0
ENDSEC
0
SECTION
2
ENTITIES
0
LINE
8
3
62
2
10
304.866236
20
335.131592
11
304.866236
21
306.056152
0
LINE
8
3
62
2
10
304.866236
20
302.056152
11
304.866236
21
272.980713
0
LINE
8
3
62
2
10
304.866236
20
272.980713
11
283.454859
21
272.980713
0
LINE
8
3
62
2
10
279.454859
20
272.980713
11
258.043483
21
272.980713
0
LINE
8
3
62
2
10
258.043483
20
272.980713
11
258.043483
21
302.056152
0
LINE
8
3
62
2
10
258.043483
20
306.056152
11
258.043483
21
335.131592
0
LINE
8
3
62
2
10
304.866236
20
350.086670
11
304.866236
21
338.122559
0
LINE
8
3
62
2
10
304.866236
20
338.122559
11
299.413868
21
338.122559
0
LINE
8
3
62
2
10
298.213868
20
338.122559
11
292.761500
21
338.122559
0
LINE
8
3
62
2
10
292.761500
20
338.122559
11
292.761500
21
335.131592
0
LINE
8
3
62
2
10
292.761500
20
335.131592
11
298.213868
21
335.131592
0
LINE
8
3
62
2
10
299.413868
20
335.131592
11
304.866236
21
335.131592
0
LINE
8
3
62
2
10
258.043483
20
335.131592
11
263.513917
21
335.131592
0
LINE
8
3
62
2
10
264.713917
20
335.131592
11
270.184352
21
335.131592
0
LINE
8
3
62
2
10
270.184352
20
335.131592
11
270.184352
21
338.122559
0
LINE
8
3
62
2
10
270.184352
20
338.122559
11
264.713917
21
338.122559
0
LINE
8
3
62
2
10
263.513917
20
338.122559
11
258.043483
21
338.122559
0
LINE
8
3
62
2
10
258.043483
20
338.122559
11
258.043483
21
350.086670
0
LINE
8
3
62
2
10
304.866236
20
427.980713
11
299.413868
21
427.980713
0
LINE
8
3
62
2
10
298.213868
20
427.980713
11
292.761500
21
427.980713
0
LINE
8
3
62
2
10
292.761500
20
427.980713
11
292.761500
21
424.989502
0
LINE
8
3
62
2
10
292.761500
20
424.989502
11
298.213868
21
424.989502
0
LINE
8
3
62
2
10
299.413868
20
424.989502
11
304.866236
21
424.989502
0
LINE
8
3
62
2
10
304.866236
20
424.989502
11
304.866236
21
412.993896
0
LINE
8
3
62
2
10
304.866236
20
412.993896
11
299.413868
21
412.993896
0
LINE
8
3
62
2
10
298.213868
20
412.993896
11
292.761500
21
412.993896
0
LINE
8
3
62
2
10
292.761500
20
412.993896
11
292.761500
21
410.002686
0
LINE
8
3
62
2
10
292.761500
20
410.002686
11
298.213868
21
410.002686
0
LINE
8
3
62
2
10
299.413868
20
410.002686
11
304.866236
21
410.002686
0
LINE
8
3
62
2
10
304.866236
20
410.002686
11
304.866236
21
398.006592
0
LINE
8
3
62
2
10
304.866236
20
398.006592
11
299.413868
21
398.006592
0
LINE
8
3
62
2
10
298.213868
20
398.006592
11
292.761500
21
398.006592
0
LINE
8
3
62
2
10
292.761500
20
398.006592
11
292.761500
21
395.015625
0
LINE
8
3
62
2
10
292.761500
20
395.015625
11
298.213868
21
395.015625
0
LINE
8
3
62
2
10
299.413868
20
395.015625
11
304.866236
21
395.015625
0
LINE
8
3
62
2
10
304.866236
20
395.015625
11
304.866236
21
383.019775
0
LINE
8
3
62
2
10
304.866236
20
383.019775
11
299.413868
21
383.019775
0
LINE
8
3
62
2
10
298.213868
20
383.019775
11
292.761500
21
383.019775
0
LINE
8
3
62
2
10
292.761500
20
383.019775
11
292.761500
21
380.028564
0
LINE
8
3
62
2
10
292.761500
20
380.028564
11
298.213868
21
380.028564
0
LINE
8
3
62
2
10
299.413868
20
380.028564
11
304.866236
21
380.028564
0
LINE
8
3
62
2
10
304.866236
20
380.028564
11
304.866236
21
368.032715
0
LINE
8
3
62
2
10
304.866236
20
368.032715
11
299.413868
21
368.032715
0
LINE
8
3
62
2
10
298.213868
20
368.032715
11
292.761500
21
368.032715
0
LINE
8
3
62
2
10
292.761500
20
368.032715
11
292.761500
21
365.041748
0
LINE
8
3
62
2
10
292.761500
20
365.041748
11
298.213868
21
365.041748
0
LINE
8
3
62
2
10
299.413868
20
365.041748
11
304.866236
21
365.041748
0
LINE
8
3
62
2
10
304.866236
20
365.041748
11
304.866236
21
353.077881
0
LINE
8
3
62
2
10
304.866236
20
353.077881
11
299.413868
21
353.077881
0
LINE
8
3
62
2
10
298.213868
20
353.077881
11
292.761500
21
353.077881
0
LINE
8
3
62
2
10
292.761500
20
353.077881
11
292.761500
21
350.086670
0
LINE
8
3
62
2
10
292.761500
20
350.086670
11
298.213868
21
350.086670
0
LINE
8
3
62
2
10
299.413868
20
350.086670
11
304.866236
21
350.086670
0
LINE
8
3
62
2
10
258.043483
20
350.086670
11
263.513917
21
350.086670
0
LINE
8
3
62
2
10
264.713917
20
350.086670
11
270.184352
21
350.086670
0
LINE
8
3
62
2
10
270.184352
20
350.086670
11
270.184352
21
353.077881
0
LINE
8
3
62
2
10
270.184352
20
353.077881
11
264.713917
21
353.077881
0
LINE
8
3
62
2
10
263.513917
20
353.077881
11
258.043483
21
353.077881
0
LINE
8
3
62
2
10
258.043483
20
353.077881
11
258.043483
21
365.041748
0
LINE
8
3
62
2
10
258.043483
20
365.041748
11
263.513917
21
365.041748
0
LINE
8
3
62
2
10
264.713917
20
365.041748
11
270.184352
21
365.041748
0
LINE
8
3
62
2
10
270.184352
20
365.041748
11
270.184352
21
368.032715
0
LINE
8
3
62
2
10
270.184352
20
368.032715
11
264.713917
21
368.032715
0
LINE
8
3
62
2
10
263.513917
20
368.032715
11
258.043483
21
368.032715
0
LINE
8
3
62
2
10
258.043483
20
368.032715
11
258.043483
21
380.028564
0
LINE
8
3
62
2
10
258.043483
20
380.028564
11
263.513917
21
380.028564
0
LINE
8
3
62
2
10
264.713917
20
380.028564
11
270.184352
21
380.028564
0
LINE
8
3
62
2
10
270.184352
20
380.028564
11
270.184352
21
383.019775
0
LINE
8
3
62
2
10
270.184352
20
383.019775
11
264.713917
21
383.019775
0
LINE
8
3
62
2
10
263.513917
20
383.019775
11
258.043483
21
383.019775
0
LINE
8
3
62
2
10
258.043483
20
383.019775
11
258.043483
21
395.015625
0
LINE
8
3
62
2
10
258.043483
20
395.015625
11
263.513917
21
395.015625
0
LINE
8
3
62
2
10
264.713917
20
395.015625
11
270.184352
21
395.015625
0
LINE
8
3
62
2
10
270.184352
20
395.015625
11
270.184352
21
398.006592
0
LINE
8
3
62
2
10
270.184352
20
398.006592
11
264.713917
21
398.006592
0
LINE
8
3
62
2
10
263.513917
20
398.006592
11
258.043483
21
398.006592
0
LINE
8
3
62
2
10
258.043483
20
398.006592
11
258.043483
21
410.002686
0
LINE
8
3
62
2
10
258.043483
20
410.002686
11
263.513917
21
410.002686
0
LINE
8
3
62
2
10
264.713917
20
410.002686
11
270.184352
21
410.002686
0
LINE
8
3
62
2
10
270.184352
20
410.002686
11
270.184352
21
412.993896
0
LINE
8
3
62
2
10
270.184352
20
412.993896
11
264.713917
21
412.993896
0
LINE
8
3
62
2
10
263.513917
20
412.993896
11
258.043483
21
412.993896
0
LINE
8
3
62
2
10
258.043483
20
412.993896
11
258.043483
21
424.989502
0
LINE
8
3
62
2
10
258.043483
20
424.989502
11
263.513917
21
424.989502
0
LINE
8
3
62
2
10
264.713917
20
424.989502
11
270.184352
21
424.989502
0
LINE
8
3
62
2
10
270.184352
20
424.989502
11
270.184352
21
427.980713
0
LINE
8
3
62
2
10
270.184352
20
427.980713
11
264.713917
21
427.980713
0
LINE
8
3
62
2
10
263.513917
20
427.980713
11
258.043483
21
427.980713
0
LINE
8
3
62
2
10
258.043483
20
427.980713
11
258.043483
21
439.980713
0
LINE
8
3
62
2
10
258.043483
20
439.980713
11
279.454859
21
439.980713
0
LINE
8
3
62
2
10
283.454859
20
439.980713
11
304.866236
21
439.980713
0
LINE
8
3
62
2
10
304.866236
20
439.980713
11
304.866236
21
427.980713
0
LINE
8
3
62
2
10
238.826197
20
335.131836
11
238.826197
21
306.056396
0
LINE
8
3
62
2
10
238.826197
20
302.056396
11
238.826197
21
272.980957
0
LINE
8
3
62
2
10
238.826197
20
272.980957
11
217.414820
21
272.980957
0
LINE
8
3
62
2
10
213.414820
20
272.980957
11
192.003443
21
272.980957
0
LINE
8
3
62
2
10
192.003443
20
272.980957
11
192.003443
21
302.056396
0
LINE
8
3
62
2
10
192.003443
20
306.056396
11
192.003443
21
335.131836
0
LINE
8
3
62
2
10
238.826197
20
350.086914
11
238.826197
21
338.122803
0
LINE
8
3
62
2
10
238.826197
20
338.122803
11
233.373829
21
338.122803
0
LINE
8
3
62
2
10
232.173829
20
338.122803
11
226.721461
21
338.122803
0
LINE
8
3
62
2
10
226.721461
20
338.122803
11
226.721461
21
335.131836
0
LINE
8
3
62
2
10
226.721461
20
335.131836
11
232.173829
21
335.131836
0
LINE
8
3
62
2
10
233.373829
20
335.131836
11
238.826197
21
335.131836
0
LINE
8
3
62
2
10
192.003443
20
335.131836
11
197.473878
21
335.131836
0
LINE
8
3
62
2
10
198.673878
20
335.131836
11
204.144313
21
335.131836
0
LINE
8
3
62
2
10
204.144313
20
335.131836
11
204.144313
21
338.122803
0
LINE
8
3
62
2
10
204.144313
20
338.122803
11
198.673878
21
338.122803
0
LINE
8
3
62
2
10
197.473878
20
338.122803
11
192.003443
21
338.122803
0
LINE
8
3
62
2
10
192.003443
20
338.122803
11
192.003443
21
350.086914
0
LINE
8
3
62
2
10
238.826197
20
427.980957
11
233.373829
21
427.980957
0
LINE
8
3
62
2
10
232.173829
20
427.980957
11
226.721461
21
427.980957
0
LINE
8
3
62
2
10
226.721461
20
427.980957
11
226.721461
21
424.989746
0
LINE
8
3
62
2
10
226.721461
20
424.989746
11
232.173829
21
424.989746
0
LINE
8
3
62
2
10
233.373829
20
424.989746
11
238.826197
21
424.989746
0
LINE
8
3
62
2
10
238.826197
20
424.989746
11
238.826197
21
412.994141
0
LINE
8
3
62
2
10
238.826197
20
412.994141
11
233.373829
21
412.994141
0
LINE
8
3
62
2
10
232.173829
20
412.994141
11
226.721461
21
412.994141
0
LINE
8
3
62
2
10
226.721461
20
412.994141
11
226.721461
21
410.002930
0
LINE
8
3
62
2
10
226.721461
20
410.002930
11
232.173829
21
410.002930
0
LINE
8
3
62
2
10
233.373829
20
410.002930
11
238.826197
21
410.002930
0
LINE
8
3
62
2
10
238.826197
20
410.002930
11
238.826197
21
398.006836
0
LINE
8
3
62
2
10
238.826197
20
398.006836
11
233.373829
21
398.006836
0
LINE
8
3
62
2
10
232.173829
20
398.006836
11
226.721461
21
398.006836
0
LINE
8
3
62
2
10
226.721461
20
398.006836
11
226.721461
21
395.015869
0
LINE
8
3
62
2
10
226.721461
20
395.015869
11
232.173829
21
395.015869
0
LINE
8
3
62
2
10
233.373829
20
395.015869
11
238.826197
21
395.015869
0
LINE
8
3
62
2
10
238.826197
20
395.015869
11
238.826197
21
383.020020
0
LINE
8
3
62
2
10
238.826197
20
383.020020
11
233.373829
21
383.020020
0
LINE
8
3
62
2
10
232.173829
20
383.020020
11
226.721461
21
383.020020
0
LINE
8
3
62
2
10
226.721461
20
383.020020
11
226.721461
21
380.028809
0
LINE
8
3
62
2
10
226.721461
20
380.028809
11
232.173829
21
380.028809
0
LINE
8
3
62
2
10
233.373829
20
380.028809
11
238.826197
21
380.028809
0
LINE
8
3
62
2
10
238.826197
20
380.028809
11
238.826197
21
368.032959
0
LINE
8
3
62
2
10
238.826197
20
368.032959
11
233.373829
21
368.032959
0
LINE
8
3
62
2
10
232.173829
20
368.032959
11
226.721461
21
368.032959
0
LINE
8
3
62
2
10
226.721461
20
368.032959
11
226.721461
21
365.041992
0
LINE
8
3
62
2
10
226.721461
20
365.041992
11
232.173829
21
365.041992
0
LINE
8
3
62
2
10
233.373829
20
365.041992
11
238.826197
21
365.041992
0
LINE
8
3
62
2
10
238.826197
20
365.041992
11
238.826197
21
353.078125
0
LINE
8
3
62
2
10
238.826197
20
353.078125
11
233.373829
21
353.078125
0
LINE
8
3
62
2
10
232.173829
20
353.078125
11
226.721461
21
353.078125
0
LINE
8
3
62
2
10
226.721461
20
353.078125
11
226.721461
21
350.086914
0
LINE
8
3
62
2
10
226.721461
20
350.086914
11
232.173829
21
350.086914
0
LINE
8
3
62
2
10
233.373829
20
350.086914
11
238.826197
21
350.086914
0
LINE
8
3
62
2
10
192.003443
20
350.086914
11
197.473878
21
350.086914
0
LINE
8
3
62
2
10
198.673878
20
350.086914
11
204.144313
21
350.086914
0
LINE
8
3
62
2
10
204.144313
20
350.086914
11
204.144313
21
353.078125
0
LINE
8
3
62
2
10
204.144313
20
353.078125
11
198.673878
21
353.078125
0
LINE
8
3
62
2
10
197.473878
20
353.078125
11
192.003443
21
353.078125
0
LINE
8
3
62
2
10
192.003443
20
353.078125
11
192.003443
21
365.041992
0
LINE
8
3
62
2
10
192.003443
20
365.041992
11
197.473878
21
365.041992
0
LINE
8
3
62
2
10
198.673878
20
365.041992
11
204.144313
21
365.041992
0
LINE
8
3
62
2
10
204.144313
20
365.041992
11
204.144313
21
368.032959
0
LINE
8
3
62
2
10
204.144313
20
368.032959
11
198.673878
21
368.032959
0
LINE
8
3
62
2
10
197.473878
20
368.032959
11
192.003443
21
368.032959
0
LINE
8
3
62
2
10
192.003443
20
368.032959
11
192.003443
21
380.028809
0
LINE
8
3
62
2
10
192.003443
20
380.028809
11
197.473878
21
380.028809
0
LINE
8
3
62
2
10
198.673878
20
380.028809
11
204.144313
21
380.028809
0
LINE
8
3
62
2
10
204.144313
20
380.028809
11
204.144313
21
383.020020
0
LINE
8
3
62
2
10
204.144313
20
383.020020
11
198.673878
21
383.020020
0
LINE
8
3
62
2
10
197.473878
20
383.020020
11
192.003443
21
383.020020
0
LINE
8
3
62
2
10
192.003443
20
383.020020
11
192.003443
21
395.015869
0
LINE
8
3
62
2
10
192.003443
20
395.015869
11
197.473878
21
395.015869
0
LINE
8
3
62
2
10
198.673878
20
395.015869
11
204.144313
21
395.015869
0
LINE
8
3
62
2
10
204.144313
20
395.015869
11
204.144313
21
398.006836
0
LINE
8
3
62
2
10
204.144313
20
398.006836
11
198.673878
21
398.006836
0
LINE
8
3
62
2
10
197.473878
20
398.006836
11
192.003443
21
398.006836
0
LINE
8
3
62
2
10
192.003443
20
398.006836
11
192.003443
21
410.002930
0
LINE
8
3
62
2
10
192.003443
20
410.002930
11
197.473878
21
410.002930
0
LINE
8
3
62
2
10
198.673878
20
410.002930
11
204.144313
21
410.002930
0
LINE
8
3
62
2
10
204.144313
20
410.002930
11
204.144313
21
412.994141
0
LINE
8
3
62
2
10
204.144313
20
412.994141
11
198.673878
21
412.994141
0
LINE
8
3
62
2
10
197.473878
20
412.994141
11
192.003443
21
412.994141
0
LINE
8
3
62
2
10
192.003443
20
412.994141
11
192.003443
21
424.989746
0
LINE
8
3
62
2
10
192.003443
20
424.989746
11
197.473878
21
424.989746
0
LINE
8
3
62
2
10
198.673878
20
424.989746
11
204.144313
21
424.989746
0
LINE
8
3
62
2
10
204.144313
20
424.989746
11
204.144313
21
427.980957
0
LINE
8
3
62
2
10
204.144313
20
427.980957
11
198.673878
21
427.980957
0
LINE
8
3
62
2
10
197.473878
20
427.980957
11
192.003443
21
427.980957
0
LINE
8
3
62
2
10
192.003443
20
427.980957
11
192.003443
21
439.980957
0
LINE
8
3
62
2
10
192.003443
20
439.980957
11
213.414820
21
439.980957
0
LINE
8
3
62
2
10
217.414820
20
439.980957
11
238.826197
21
439.980957
0
LINE
8
3
62
2
10
238.826197
20
439.980957
11
238.826197
21
427.980957
0
LINE
8
3
62
2
10
172.786158
20
335.131836
11
172.786158
21
306.056396
0
LINE
8
3
62
2
10
172.786158
20
302.056396
11
172.786158
21
272.980957
0
LINE
8
3
62
2
10
172.786158
20
272.980957
11
151.374781
21
272.980957
0
LINE
8
3
62
2
10
147.374781
20
272.980957
11
125.963404
21
272.980957
0
LINE
8
3
62
2
10
125.963404
20
272.980957
11
125.963404
21
302.056396
0
LINE
8
3
62
2
10
125.963404
20
306.056396
11
125.963404
21
335.131836
0
LINE
8
3
62
2
10
172.786158
20
350.086914
11
172.786158
21
338.122803
0
LINE
8
3
62
2
10
172.786158
20
338.122803
11
167.333790
21
338.122803
0
LINE
8
3
62
2
10
166.133790
20
338.122803
11
160.681422
21
338.122803
0
LINE
8
3
62
2
10
160.681422
20
338.122803
11
160.681422
21
335.131836
0
LINE
8
3
62
2
10
160.681422
20
335.131836
11
166.133790
21
335.131836
0
LINE
8
3
62
2
10
167.333790
20
335.131836
11
172.786158
21
335.131836
0
LINE
8
3
62
2
10
125.963404
20
335.131836
11
131.433839
21
335.131836
0
LINE
8
3
62
2
10
132.633839
20
335.131836
11
138.104274
21
335.131836
0
LINE
8
3
62
2
10
138.104274
20
335.131836
11
138.104274
21
338.122803
0
LINE
8
3
62
2
10
138.104274
20
338.122803
11
132.633839
21
338.122803
0
LINE
8
3
62
2
10
131.433839
20
338.122803
11
125.963404
21
338.122803
0
LINE
8
3
62
2
10
125.963404
20
338.122803
11
125.963404
21
350.086914
0
LINE
8
3
62
2
10
172.786158
20
427.980957
11
167.333790
21
427.980957
0
LINE
8
3
62
2
10
166.133790
20
427.980957
11
160.681422
21
427.980957
0
LINE
8
3
62
2
10
160.681422
20
427.980957
11
160.681422
21
424.989746
0
LINE
8
3
62
2
10
160.681422
20
424.989746
11
166.133790
21
424.989746
0
LINE
8
3
62
2
10
167.333790
20
424.989746
11
172.786158
21
424.989746
0
LINE
8
3
62
2
10
172.786158
20
424.989746
11
172.786158
21
412.994141
0
LINE
8
3
62
2
10
172.786158
20
412.994141
11
167.333790
21
412.994141
0
LINE
8
3
62
2
10
166.133790
20
412.994141
11
160.681422
21
412.994141
0
LINE
8
3
62
2
10
160.681422
20
412.994141
11
160.681422
21
410.002930
0
LINE
8
3
62
2
10
160.681422
20
410.002930
11
166.133790
21
410.002930
0
LINE
8
3
62
2
10
167.333790
20
410.002930
11
172.786158
21
410.002930
0
LINE
8
3
62
2
10
172.786158
20
410.002930
11
172.786158
21
398.006836
0
LINE
8
3
62
2
10
172.786158
20
398.006836
11
167.333790
21
398.006836
0
LINE
8
3
62
2
10
166.133790
20
398.006836
11
160.681422
21
398.006836
0
LINE
8
3
62
2
10
160.681422
20
398.006836
11
160.681422
21
395.015869
0
LINE
8
3
62
2
10
160.681422
20
395.015869
11
166.133790
21
395.015869
0
LINE
8
3
62
2
10
167.333790
20
395.015869
11
172.786158
21
395.015869
0
LINE
8
3
62
2
10
172.786158
20
395.015869
11
172.786158
21
383.020020
0
LINE
8
3
62
2
10
172.786158
20
383.020020
11
167.333790
21
383.020020
0
LINE
8
3
62
2
10
166.133790
20
383.020020
11
160.681422
21
383.020020
0
LINE
8
3
62
2
10
160.681422
20
383.020020
11
160.681422
21
380.028809
0
LINE
8
3
62
2
10
160.681422
20
380.028809
11
166.133790
21
380.028809
0
LINE
8
3
62
2
10
167.333790
20
380.028809
11
172.786158
21
380.028809
0
LINE
8
3
62
2
10
172.786158
20
380.028809
11
172.786158
21
368.032959
0
LINE
8
3
62
2
10
172.786158
20
368.032959
11
167.333790
21
368.032959
0
LINE
8
3
62
2
10
166.133790
20
368.032959
11
160.681422
21
368.032959
0
LINE
8
3
62
2
10
160.681422
20
368.032959
11
160.681422
21
365.041992
0
LINE
8
3
62
2
10
160.681422
20
365.041992
11
166.133790
21
365.041992
0
LINE
8
3
62
2
10
167.333790
20
365.041992
11
172.786158
21
365.041992
0
LINE
8
3
62
2
10
172.786158
20
365.041992
11
172.786158
21
353.078125
0
LINE
8
3
62
2
10
172.786158
20
353.078125
11
167.333790
21
353.078125
0
LINE
8
3
62
2
10
166.133790
20
353.078125
11
160.681422
21
353.078125
0
LINE
8
3
62
2
10
160.681422
20
353.078125
11
160.681422
21
350.086914
0
LINE
8
3
62
2
10
160.681422
20
350.086914
11
166.133790
21
350.086914
0
LINE
8
3
62
2
10
167.333790
20
350.086914
11
172.786158
21
350.086914
0
LINE
8
3
62
2
10
125.963404
20
350.086914
11
131.433839
21
350.086914
0
LINE
8
3
62
2
10
132.633839
20
350.086914
11
138.104274
21
350.086914
0
LINE
8
3
62
2
10
138.104274
20
350.086914
11
138.104274
21
353.078125
0
LINE
8
3
62
2
10
138.104274
20
353.078125
11
132.633839
21
353.078125
0
LINE
8
3
62
2
10
131.433839
20
353.078125
11
125.963404
21
353.078125
0
LINE
8
3
62
2
10
125.963404
20
353.078125
11
125.963404
21
365.041992
0
LINE
8
3
62
2
10
125.963404
20
365.041992
11
131.433839
21
365.041992
0
LINE
8
3
62
2
10
132.633839
20
365.041992
11
138.104274
21
365.041992
0
LINE
8
3
62
2
10
138.104274
20
365.041992
11
138.104274
21
368.032959
0
LINE
8
3
62
2
10
138.104274
20
368.032959
11
132.633839
21
368.032959
0
LINE
8
3
62
2
10
131.433839
20
368.032959
11
125.963404
21
368.032959
0
LINE
8
3
62
2
10
125.963404
20
368.032959
11
125.963404
21
380.028809
0
LINE
8
3
62
2
10
125.963404
20
380.028809
11
131.433839
21
380.028809
0
LINE
8
3
62
2
10
132.633839
20
380.028809
11
138.104274
21
380.028809
0
LINE
8
3
62
2
10
138.104274
20
380.028809
11
138.104274
21
383.020020
0
LINE
8
3
62
2
10
138.104274
20
383.020020
11
132.633839
21
383.020020
0
LINE
8
3
62
2
10
131.433839
20
383.020020
11
125.963404
21
383.020020
0
LINE
8
3
62
2
10
125.963404
20
383.020020
11
125.963404
21
395.015869
0
LINE
8
3
62
2
10
125.963404
20
395.015869
11
131.433839
21
395.015869
0
LINE
8
3
62
2
10
132.633839
20
395.015869
11
138.104274
21
395.015869
0
LINE
8
3
62
2
10
138.104274
20
395.015869
11
138.104274
21
398.006836
0
LINE
8
3
62
2
10
138.104274
20
398.006836
11
132.633839
21
398.006836
0
LINE
8
3
62
2
10
131.433839
20
398.006836
11
125.963404
21
398.006836
0
LINE
8
3
62
2
10
125.963404
20
398.006836
11
125.963404
21
410.002930
0
LINE
8
3
62
2
10
125.963404
20
410.002930
11
131.433839
21
410.002930
0
LINE
8
3
62
2
10
132.633839
20
410.002930
11
138.104274
21
410.002930
0
LINE
8
3
62
2
10
138.104274
20
410.002930
11
138.104274
21
412.994141
0
LINE
8
3
62
2
10
138.104274
20
412.994141
11
132.633839
21
412.994141
0
LINE
8
3
62
2
10
131.433839
20
412.994141
11
125.963404
21
412.994141
0
LINE
8
3
62
2
10
125.963404
20
412.994141
11
125.963404
21
424.989746
0
LINE
8
3
62
2
10
125.963404
20
424.989746
11
131.433839
21
424.989746
0
LINE
8
3
62
2
10
132.633839
20
424.989746
11
138.104274
21
424.989746
0
LINE
8
3
62
2
10
138.104274
20
424.989746
11
138.104274
21
427.980957
0
LINE
8
3
62
2
10
138.104274
20
427.980957
11
132.633839
21
427.980957
0
LINE
8
3
62
2
10
131.433839
20
427.980957
11
125.963404
21
427.980957
0
LINE
8
3
62
2
10
125.963404
20
427.980957
11
125.963404
21
439.980957
0
LINE
8
3
62
2
10
125.963404
20
439.980957
11
147.374781
21
439.980957
0
LINE
8
3
62
2
10
151.374781
20
439.980957
11
172.786158
21
439.980957
0
LINE
8
3
62
2
10
172.786158
20
439.980957
11
172.786158
21
427.980957
0
LINE
8
3
62
2
10
110.132838
20
333.438477
11
110.132838
21
304.363037
0
LINE
8
3
62
2
10
110.132838
20
300.363037
11
110.132838
21
271.287598
0
LINE
8
3
62
2
10
110.132838
20
271.287598
11
88.721461
21
271.287598
0
LINE
8
3
62
2
10
84.721461
20
271.287598
11
63.310084
21
271.287598
0
LINE
8
3
62
2
10
63.310084
20
271.287598
11
63.310084
21
300.363037
0
LINE
8
3
62
2
10
63.310084
20
304.363037
11
63.310084
21
333.438477
0
LINE
8
3
62
2
10
110.132838
20
348.393555
11
110.132838
21
336.429443
0
LINE
8
3
62
2
10
110.132838
20
336.429443
11
104.680470
21
336.429443
0
LINE
8
3
62
2
10
103.480470
20
336.429443
11
98.028102
21
336.429443
0
LINE
8
3
62
2
10
98.028102
20
336.429443
11
98.028102
21
333.438477
0
LINE
8
3
62
2
10
98.028102
20
333.438477
11
103.480470
21
333.438477
0
LINE
8
3
62
2
10
104.680470
20
333.438477
11
110.132838
21
333.438477
0
LINE
8
3
62
2
10
63.310084
20
333.438477
11
68.780519
21
333.438477
0
LINE
8
3
62
2
10
69.980519
20
333.438477
11
75.450953
21
333.438477
0
LINE
8
3
62
2
10
75.450953
20
333.438477
11
75.450953
21
336.429443
0
LINE
8
3
62
2
10
75.450953
20
336.429443
11
69.980519
21
336.429443
0
LINE
8
3
62
2
10
68.780519
20
336.429443
11
63.310084
21
336.429443
0
LINE
8
3
62
2
10
63.310084
20
336.429443
11
63.310084
21
348.393555
0
LINE
8
3
62
2
10
110.132838
20
426.287598
11
104.680470
21
426.287598
0
LINE
8
3
62
2
10
103.480470
20
426.287598
11
98.028102
21
426.287598
0
LINE
8
3
62
2
10
98.028102
20
426.287598
11
98.028102
21
423.296387
0
LINE
8
3
62
2
10
98.028102
20
423.296387
11
103.480470
21
423.296387
0
LINE
8
3
62
2
10
104.680470
20
423.296387
11
110.132838
21
423.296387
0
LINE
8
3
62
2
10
110.132838
20
423.296387
11
110.132838
21
411.300781
0
LINE
8
3
62
2
10
110.132838
20
411.300781
11
104.680470
21
411.300781
0
LINE
8
3
62
2
10
103.480470
20
411.300781
11
98.028102
21
411.300781
0
LINE
8
3
62
2
10
98.028102
20
411.300781
11
98.028102
21
408.309570
0
LINE
8
3
62
2
10
98.028102
20
408.309570
11
103.480470
21
408.309570
0
LINE
8
3
62
2
10
104.680470
20
408.309570
11
110.132838
21
408.309570
0
LINE
8
3
62
2
10
110.132838
20
408.309570
11
110.132838
21
396.313477
0
LINE
8
3
62
2
10
110.132838
20
396.313477
11
104.680470
21
396.313477
0
LINE
8
3
62
2
10
103.480470
20
396.313477
11
98.028102
21
396.313477
0
LINE
8
3
62
2
10
98.028102
20
396.313477
11
98.028102
21
393.322510
0
LINE
8
3
62
2
10
98.028102
20
393.322510
11
103.480470
21
393.322510
0
LINE
8
3
62
2
10
104.680470
20
393.322510
11
110.132838
21
393.322510
0
LINE
8
3
62
2
10
110.132838
20
393.322510
11
110.132838
21
381.326660
0
LINE
8
3
62
2
10
110.132838
20
381.326660
11
104.680470
21
381.326660
0
LINE
8
3
62
2
10
103.480470
20
381.326660
11
98.028102
21
381.326660
0
LINE
8
3
62
2
10
98.028102
20
381.326660
11
98.028102
21
378.335449
0
LINE
8
3
62
2
10
98.028102
20
378.335449
11
103.480470
21
378.335449
0
LINE
8
3
62
2
10
104.680470
20
378.335449
11
110.132838
21
378.335449
0
LINE
8
3
62
2
10
110.132838
20
378.335449
11
110.132838
21
366.339600
0
LINE
8
3
62
2
10
110.132838
20
366.339600
11
104.680470
21
366.339600
0
LINE
8
3
62
2
10
103.480470
20
366.339600
11
98.028102
21
366.339600
0
LINE
8
3
62
2
10
98.028102
20
366.339600
11
98.028102
21
363.348633
0
LINE
8
3
62
2
10
98.028102
20
363.348633
11
103.480470
21
363.348633
0
LINE
8
3
62
2
10
104.680470
20
363.348633
11
110.132838
21
363.348633
0
LINE
8
3
62
2
10
110.132838
20
363.348633
11
110.132838
21
351.384766
0
LINE
8
3
62
2
10
110.132838
20
351.384766
11
104.680470
21
351.384766
0
LINE
8
3
62
2
10
103.480470
20
351.384766
11
98.028102
21
351.384766
0
LINE
8
3
62
2
10
98.028102
20
351.384766
11
98.028102
21
348.393555
0
LINE
8
3
62
2
10
98.028102
20
348.393555
11
103.480470
21
348.393555
0
LINE
8
3
62
2
10
104.680470
20
348.393555
11
110.132838
21
348.393555
0
LINE
8
3
62
2
10
63.310084
20
348.393555
11
68.780519
21
348.393555
0
LINE
8
3
62
2
10
69.980519
20
348.393555
11
75.450953
21
348.393555
0
LINE
8
3
62
2
10
75.450953
20
348.393555
11
75.450953
21
351.384766
0
LINE
8
3
62
2
10
75.450953
20
351.384766
11
69.980519
21
351.384766
0
LINE
8
3
62
2
10
68.780519
20
351.384766
11
63.310084
21
351.384766
0
LINE
8
3
62
2
10
63.310084
20
351.384766
11
63.310084
21
363.348633
0
LINE
8
3
62
2
10
63.310084
20
363.348633
11
68.780519
21
363.348633
0
LINE
8
3
62
2
10
69.980519
20
363.348633
11
75.450953
21
363.348633
0
LINE
8
3
62
2
10
75.450953
20
363.348633
11
75.450953
21
366.339600
0
LINE
8
3
62
2
10
75.450953
20
366.339600
11
69.980519
21
366.339600
0
LINE
8
3
62
2
10
68.780519
20
366.339600
11
63.310084
21
366.339600
0
LINE
8
3
62
2
10
63.310084
20
366.339600
11
63.310084
21
378.335449
0
LINE
8
3
62
2
10
63.310084
20
378.335449
11
68.780519
21
378.335449
0
LINE
8
3
62
2
10
69.980519
20
378.335449
11
75.450953
21
378.335449
0
LINE
8
3
62
2
10
75.450953
20
378.335449
11
75.450953
21
381.326660
0
LINE
8
3
62
2
10
75.450953
20
381.326660
11
69.980519
21
381.326660
0
LINE
8
3
62
2
10
68.780519
20
381.326660
11
63.310084
21
381.326660
0
LINE
8
3
62
2
10
63.310084
20
381.326660
11
63.310084
21
393.322510
0
LINE
8
3
62
2
10
63.310084
20
393.322510
11
68.780519
21
393.322510
0
LINE
8
3
62
2
10
69.980519
20
393.322510
11
75.450953
21
393.322510
0
LINE
8
3
62
2
10
75.450953
20
393.322510
11
75.450953
21
396.313477
0
LINE
8
3
62
2
10
75.450953
20
396.313477
11
69.980519
21
396.313477
0
LINE
8
3
62
2
10
68.780519
20
396.313477
11
63.310084
21
396.313477
0
LINE
8
3
62
2
10
63.310084
20
396.313477
11
63.310084
21
408.309570
0
LINE
8
3
62
2
10
63.310084
20
408.309570
11
68.780519
21
408.309570
0
LINE
8
3
62
2
10
69.980519
20
408.309570
11
75.450953
21
408.309570
0
LINE
8
3
62
2
10
75.450953
20
408.309570
11
75.450953
21
411.300781
0
LINE
8
3
62
2
10
75.450953
20
411.300781
11
69.980519
21
411.300781
0
LINE
8
3
62
2
10
68.780519
20
411.300781
11
63.310084
21
411.300781
0
LINE
8
3
62
2
10
63.310084
20
411.300781
11
63.310084
21
423.296387
0
LINE
8
3
62
2
10
63.310084
20
423.296387
11
68.780519
21
423.296387
0
LINE
8
3
62
2
10
69.980519
20
423.296387
11
75.450953
21
423.296387
0
LINE
8
3
62
2
10
75.450953
20
423.296387
11
75.450953
21
426.287598
0
LINE
8
3
62
2
10
75.450953
20
426.287598
11
69.980519
21
426.287598
0
LINE
8
3
62
2
10
68.780519
20
426.287598
11
63.310084
21
426.287598
0
LINE
8
3
62
2
10
63.310084
20
426.287598
11
63.310084
21
438.287598
0
LINE
8
3
62
2
10
63.310084
20
438.287598
11
84.721461
21
438.287598
0
LINE
8
3
62
2
10
88.721461
20
438.287598
11
110.132838
21
438.287598
0
LINE
8
3
62
2
10
110.132838
20
438.287598
11
110.132838
21
426.287598
0
LINE
8
3
62
2
10
46.632838
20
335.131836
11
46.632838
21
306.056396
0
LINE
8
3
62
2
10
46.632838
20
302.056396
11
46.632838
21
272.980957
0
LINE
8
3
62
2
10
46.632838
20
272.980957
11
25.221461
21
272.980957
0
LINE
8
3
62
2
10
21.221461
20
272.980957
11
-0.189916
21
272.980957
0
LINE
8
3
62
2
10
-0.189916
20
272.980957
11
-0.189916
21
302.056396
0
LINE
8
3
62
2
10
-0.189916
20
306.056396
11
-0.189916
21
335.131836
0
LINE
8
3
62
2
10
46.632838
20
350.086914
11
46.632838
21
338.122803
0
LINE
8
3
62
2
10
46.632838
20
338.122803
11
41.180470
21
338.122803
0
LINE
8
3
62
2
10
39.980470
20
338.122803
11
34.528102
21
338.122803
0
LINE
8
3
62
2
10
34.528102
20
338.122803
11
34.528102
21
335.131836
0
LINE
8
3
62
2
10
34.528102
20
335.131836
11
39.980470
21
335.131836
0
LINE
8
3
62
2
10
41.180470
20
335.131836
11
46.632838
21
335.131836
0
LINE
8
3
62
2
10
-0.189916
20
335.131836
11
5.280519
21
335.131836
0
LINE
8
3
62
2
10
6.480519
20
335.131836
11
11.950953
21
335.131836
0
LINE
8
3
62
2
10
11.950953
20
335.131836
11
11.950953
21
338.122803
0
LINE
8
3
62
2
10
11.950953
20
338.122803
11
6.480519
21
338.122803
0
LINE
8
3
62
2
10
5.280519
20
338.122803
11
-0.189916
21
338.122803
0
LINE
8
3
62
2
10
-0.189916
20
338.122803
11
-0.189916
21
350.086914
0
LINE
8
3
62
2
10
46.632838
20
427.980957
11
41.180470
21
427.980957
0
LINE
8
3
62
2
10
39.980470
20
427.980957
11
34.528102
21
427.980957
0
LINE
8
3
62
2
10
34.528102
20
427.980957
11
34.528102
21
424.989746
0
LINE
8
3
62
2
10
34.528102
20
424.989746
11
39.980470
21
424.989746
0
LINE
8
3
62
2
10
41.180470
20
424.989746
11
46.632838
21
424.989746
0
LINE
8
3
62
2
10
46.632838
20
424.989746
11
46.632838
21
412.994141
0
LINE
8
3
62
2
10
46.632838
20
412.994141
11
41.180470
21
412.994141
0
LINE
8
3
62
2
10
39.980470
20
412.994141
11
34.528102
21
412.994141
0
LINE
8
3
62
2
10
34.528102
20
412.994141
11
34.528102
21
410.002930
0
LINE
8
3
62
2
10
34.528102
20
410.002930
11
39.980470
21
410.002930
0
LINE
8
3
62
2
10
41.180470
20
410.002930
11
46.632838
21
410.002930
0
LINE
8
3
62
2
10
46.632838
20
410.002930
11
46.632838
21
398.006836
0
LINE
8
3
62
2
10
46.632838
20
398.006836
11
41.180470
21
398.006836
0
LINE
8
3
62
2
10
39.980470
20
398.006836
11
34.528102
21
398.006836
0
LINE
8
3
62
2
10
34.528102
20
398.006836
11
34.528102
21
395.015869
0
LINE
8
3
62
2
10
34.528102
20
395.015869
11
39.980470
21
395.015869
0
LINE
8
3
62
2
10
41.180470
20
395.015869
11
46.632838
21
395.015869
0
LINE
8
3
62
2
10
46.632838
20
395.015869
11
46.632838
21
383.020020
0
LINE
8
3
62
2
10
46.632838
20
383.020020
11
41.180470
21
383.020020
0
LINE
8
3
62
2
10
39.980470
20
383.020020
11
34.528102
21
383.020020
0
LINE
8
3
62
2
10
34.528102
20
383.020020
11
34.528102
21
380.028809
0
LINE
8
3
62
2
10
34.528102
20
380.028809
11
39.980470
21
380.028809
0
LINE
8
3
62
2
10
41.180470
20
380.028809
11
46.632838
21
380.028809
0
LINE
8
3
62
2
10
46.632838
20
380.028809
11
46.632838
21
368.032959
0
LINE
8
3
62
2
10
46.632838
20
368.032959
11
41.180470
21
368.032959
0
LINE
8
3
62
2
10
39.980470
20
368.032959
11
34.528102
21
368.032959
0
LINE
8
3
62
2
10
34.528102
20
368.032959
11
34.528102
21
365.041992
0
LINE
8
3
62
2
10
34.528102
20
365.041992
11
39.980470
21
365.041992
0
LINE
8
3
62
2
10
41.180470
20
365.041992
11
46.632838
21
365.041992
0
LINE
8
3
62
2
10
46.632838
20
365.041992
11
46.632838
21
353.078125
0
LINE
8
3
62
2
10
46.632838
20
353.078125
11
41.180470
21
353.078125
0
LINE
8
3
62
2
10
39.980470
20
353.078125
11
34.528102
21
353.078125
0
LINE
8
3
62
2
10
34.528102
20
353.078125
11
34.528102
21
350.086914
0
LINE
8
3
62
2
10
34.528102
20
350.086914
11
39.980470
21
350.086914
0
LINE
8
3
62
2
10
41.180470
20
350.086914
11
46.632838
21
350.086914
0
LINE
8
3
62
2
10
-0.189916
20
350.086914
11
5.280519
21
350.086914
0
LINE
8
3
62
2
10
6.480519
20
350.086914
11
11.950953
21
350.086914
0
LINE
8
3
62
2
10
11.950953
20
350.086914
11
11.950953
21
353.078125
0
LINE
8
3
62
2
10
11.950953
20
353.078125
11
6.480519
21
353.078125
0
LINE
8
3
62
2
10
5.280519
20
353.078125
11
-0.189916
21
353.078125
0
LINE
8
3
62
2
10
-0.189916
20
353.078125
11
-0.189916
21
365.041992
0
LINE
8
3
62
2
10
-0.189916
20
365.041992
11
5.280519
21
365.041992
0
LINE
8
3
62
2
10
6.480519
20
365.041992
11
11.950953
21
365.041992
0
LINE
8
3
62
2
10
11.950953
20
365.041992
11
11.950953
21
368.032959
0
LINE
8
3
62
2
10
11.950953
20
368.032959
11
6.480519
21
368.032959
0
LINE
8
3
62
2
10
5.280519
20
368.032959
11
-0.189916
21
368.032959
0
LINE
8
3
62
2
10
-0.189916
20
368.032959
11
-0.189916
21
380.028809
0
LINE
8
3
62
2
10
-0.189916
20
380.028809
11
5.280519
21
380.028809
0
LINE
8
3
62
2
10
6.480519
20
380.028809
11
11.950953
21
380.028809
0
LINE
8
3
62
2
10
11.950953
20
380.028809
11
11.950953
21
383.020020
0
LINE
8
3
62
2
10
11.950953
20
383.020020
11
6.480519
21
383.020020
0
LINE
8
3
62
2
10
5.280519
20
383.020020
11
-0.189916
21
383.020020
0
LINE
8
3
62
2
10
-0.189916
20
383.020020
11
-0.189916
21
395.015869
0
LINE
8
3
62
2
10
-0.189916
20
395.015869
11
5.280519
21
395.015869
0
LINE
8
3
62
2
10
6.480519
20
395.015869
11
11.950953
21
395.015869
0
LINE
8
3
62
2
10
11.950953
20
395.015869
11
11.950953
21
398.006836
0
LINE
8
3
62
2
10
11.950953
20
398.006836
11
6.480519
21
398.006836
0
LINE
8
3
62
2
10
5.280519
20
398.006836
11
-0.189916
21
398.006836
0
LINE
8
3
62
2
10
-0.189916
20
398.006836
11
-0.189916
21
410.002930
0
LINE
8
3
62
2
10
-0.189916
20
410.002930
11
5.280519
21
410.002930
0
LINE
8
3
62
2
10
6.480519
20
410.002930
11
11.950953
21
410.002930
0
LINE
8
3
62
2
10
11.950953
20
410.002930
11
11.950953
21
412.994141
0
LINE
8
3
62
2
10
11.950953
20
412.994141
11
6.480519
21
412.994141
0
LINE
8
3
62
2
10
5.280519
20
412.994141
11
-0.189916
21
412.994141
0
LINE
8
3
62
2
10
-0.189916
20
412.994141
11
-0.189916
21
424.989746
0
LINE
8
3
62
2
10
-0.189916
20
424.989746
11
5.280519
21
424.989746
0
LINE
8
3
62
2
10
6.480519
20
424.989746
11
11.950953
21
424.989746
0
LINE
8
3
62
2
10
11.950953
20
424.989746
11
11.950953
21
427.980957
0
LINE
8
3
62
2
10
11.950953
20
427.980957
11
6.480519
21
427.980957
0
LINE
8
3
62
2
10
5.280519
20
427.980957
11
-0.189916
21
427.980957
0
LINE
8
3
62
2
10
-0.189916
20
427.980957
11
-0.189916
21
439.980957
0
LINE
8
3
62
2
10
-0.189916
20
439.980957
11
21.221461
21
439.980957
0
LINE
8
3
62
2
10
25.221461
20
439.980957
11
46.632838
21
439.980957
0
LINE
8
3
62
2
10
46.632838
20
439.980957
11
46.632838
21
427.980957
0
LINE
8
3
62
2
10
48.326197
20
116.691650
11
48.326197
21
87.616211
0
LINE
8
3
62
2
10
48.326197
20
83.616211
11
48.326197
21
54.540771
0
LINE
8
3
62
2
10
48.326197
20
54.540771
11
26.914820
21
54.540771
0
LINE
8
3
62
2
10
22.914820
20
54.540771
11
1.503443
21
54.540771
0
LINE
8
3
62
2
10
1.503443
20
54.540771
11
1.503443
21
83.616211
0
LINE
8
3
62
2
10
1.503443
20
87.616211
11
1.503443
21
116.691650
0
LINE
8
3
62
2
10
48.326197
20
131.646729
11
48.326197
21
119.682617
0
LINE
8
3
62
2
10
48.326197
20
119.682617
11
42.873829
21
119.682617
0
LINE
8
3
62
2
10
41.673829
20
119.682617
11
36.221461
21
119.682617
0
LINE
8
3
62
2
10
36.221461
20
119.682617
11
36.221461
21
116.691650
0
LINE
8
3
62
2
10
36.221461
20
116.691650
11
41.673829
21
116.691650
0
LINE
8
3
62
2
10
42.873829
20
116.691650
11
48.326197
21
116.691650
0
LINE
8
3
62
2
10
1.503443
20
116.691650
11
6.973878
21
116.691650
0
LINE
8
3
62
2
10
8.173878
20
116.691650
11
13.644313
21
116.691650
0
LINE
8
3
62
2
10
13.644313
20
116.691650
11
13.644313
21
119.682617
0
LINE
8
3
62
2
10
13.644313
20
119.682617
11
8.173878
21
119.682617
0
LINE
8
3
62
2
10
6.973878
20
119.682617
11
1.503443
21
119.682617
0
LINE
8
3
62
2
10
1.503443
20
119.682617
11
1.503443
21
131.646729
0
LINE
8
3
62
2
10
48.326197
20
209.540771
11
42.873829
21
209.540771
0
LINE
8
3
62
2
10
41.673829
20
209.540771
11
36.221461
21
209.540771
0
LINE
8
3
62
2
10
36.221461
20
209.540771
11
36.221461
21
206.549561
0
LINE
8
3
62
2
10
36.221461
20
206.549561
11
41.673829
21
206.549561
0
LINE
8
3
62
2
10
42.873829
20
206.549561
11
48.326197
21
206.549561
0
LINE
8
3
62
2
10
48.326197
20
206.549561
11
48.326197
21
194.553955
0
LINE
8
3
62
2
10
48.326197
20
194.553955
11
42.873829
21
194.553955
0
LINE
8
3
62
2
10
41.673829
20
194.553955
11
36.221461
21
194.553955
0
LINE
8
3
62
2
10
36.221461
20
194.553955
11
36.221461
21
191.562744
0
LINE
8
3
62
2
10
36.221461
20
191.562744
11
41.673829
21
191.562744
0
LINE
8
3
62
2
10
42.873829
20
191.562744
11
48.326197
21
191.562744
0
LINE
8
3
62
2
10
48.326197
20
191.562744
11
48.326197
21
179.566650
0
LINE
8
3
62
2
10
48.326197
20
179.566650
11
42.873829
21
179.566650
0
LINE
8
3
62
2
10
41.673829
20
179.566650
11
36.221461
21
179.566650
0
LINE
8
3
62
2
10
36.221461
20
179.566650
11
36.221461
21
176.575684
0
LINE
8
3
62
2
10
36.221461
20
176.575684
11
41.673829
21
176.575684
0
LINE
8
3
62
2
10
42.873829
20
176.575684
11
48.326197
21
176.575684
0
LINE
8
3
62
2
10
48.326197
20
176.575684
11
48.326197
21
164.579834
0
LINE
8
3
62
2
10
48.326197
20
164.579834
11
42.873829
21
164.579834
0
LINE
8
3
62
2
10
41.673829
20
164.579834
11
36.221461
21
164.579834
0
LINE
8
3
62
2
10
36.221461
20
164.579834
11
36.221461
21
161.588623
0
LINE
8
3
62
2
10
36.221461
20
161.588623
11
41.673829
21
161.588623
0
LINE
8
3
62
2
10
42.873829
20
161.588623
11
48.326197
21
161.588623
0
LINE
8
3
62
2
10
48.326197
20
161.588623
11
48.326197
21
149.592773
0
LINE
8
3
62
2
10
48.326197
20
149.592773
11
42.873829
21
149.592773
0
LINE
8
3
62
2
10
41.673829
20
149.592773
11
36.221461
21
149.592773
0
LINE
8
3
62
2
10
36.221461
20
149.592773
11
36.221461
21
146.601807
0
LINE
8
3
62
2
10
36.221461
20
146.601807
11
41.673829
21
146.601807
0
LINE
8
3
62
2
10
42.873829
20
146.601807
11
48.326197
21
146.601807
0
LINE
8
3
62
2
10
48.326197
20
146.601807
11
48.326197
21
134.637939
0
LINE
8
3
62
2
10
48.326197
20
134.637939
11
42.873829
21
134.637939
0
LINE
8
3
62
2
10
41.673829
20
134.637939
11
36.221461
21
134.637939
0
LINE
8
3
62
2
10
36.221461
20
134.637939
11
36.221461
21
131.646729
0
LINE
8
3
62
2
10
36.221461
20
131.646729
11
41.673829
21
131.646729
0
LINE
8
3
62
2
10
42.873829
20
131.646729
11
48.326197
21
131.646729
0
LINE
8
3
62
2
10
1.503443
20
131.646729
11
6.973878
21
131.646729
0
LINE
8
3
62
2
10
8.173878
20
131.646729
11
13.644313
21
131.646729
0
LINE
8
3
62
2
10
13.644313
20
131.646729
11
13.644313
21
134.637939
0
LINE
8
3
62
2
10
13.644313
20
134.637939
11
8.173878
21
134.637939
0
LINE
8
3
62
2
10
6.973878
20
134.637939
11
1.503443
21
134.637939
0
LINE
8
3
62
2
10
1.503443
20
134.637939
11
1.503443
21
146.601807
0
LINE
8
3
62
2
10
1.503443
20
146.601807
11
6.973878
21
146.601807
0
LINE
8
3
62
2
10
8.173878
20
146.601807
11
13.644313
21
146.601807
0
LINE
8
3
62
2
10
13.644313
20
146.601807
11
13.644313
21
149.592773
0
LINE
8
3
62
2
10
13.644313
20
149.592773
11
8.173878
21
149.592773
0
LINE
8
3
62
2
10
6.973878
20
149.592773
11
1.503443
21
149.592773
0
LINE
8
3
62
2
10
1.503443
20
149.592773
11
1.503443
21
161.588623
0
LINE
8
3
62
2
10
1.503443
20
161.588623
11
6.973878
21
161.588623
0
LINE
8
3
62
2
10
8.173878
20
161.588623
11
13.644313
21
161.588623
0
LINE
8
3
62
2
10
13.644313
20
161.588623
11
13.644313
21
164.579834
0
LINE
8
3
62
2
10
13.644313
20
164.579834
11
8.173878
21
164.579834
0
LINE
8
3
62
2
10
6.973878
20
164.579834
11
1.503443
21
164.579834
0
LINE
8
3
62
2
10
1.503443
20
164.579834
11
1.503443
21
176.575684
0
LINE
8
3
62
2
10
1.503443
20
176.575684
11
6.973878
21
176.575684
0
LINE
8
3
62
2
10
8.173878
20
176.575684
11
13.644313
21
176.575684
0
LINE
8
3
62
2
10
13.644313
20
176.575684
11
13.644313
21
179.566650
0
LINE
8
3
62
2
10
13.644313
20
179.566650
11
8.173878
21
179.566650
0
LINE
8
3
62
2
10
6.973878
20
179.566650
11
1.503443
21
179.566650
0
LINE
8
3
62
2
10
1.503443
20
179.566650
11
1.503443
21
191.562744
0
LINE
8
3
62
2
10
1.503443
20
191.562744
11
6.973878
21
191.562744
0
LINE
8
3
62
2
10
8.173878
20
191.562744
11
13.644313
21
191.562744
0
LINE
8
3
62
2
10
13.644313
20
191.562744
11
13.644313
21
194.553955
0
LINE
8
3
62
2
10
13.644313
20
194.553955
11
8.173878
21
194.553955
0
LINE
8
3
62
2
10
6.973878
20
194.553955
11
1.503443
21
194.553955
0
LINE
8
3
62
2
10
1.503443
20
194.553955
11
1.503443
21
206.549561
0
LINE
8
3
62
2
10
1.503443
20
206.549561
11
6.973878
21
206.549561
0
LINE
8
3
62
2
10
8.173878
20
206.549561
11
13.644313
21
206.549561
0
LINE
8
3
62
2
10
13.644313
20
206.549561
11
13.644313
21
209.540771
0
LINE
8
3
62
2
10
13.644313
20
209.540771
11
8.173878
21
209.540771
0
LINE
8
3
62
2
10
6.973878
20
209.540771
11
1.503443
21
209.540771
0
LINE
8
3
62
2
10
1.503443
20
209.540771
11
1.503443
21
221.540771
0
LINE
8
3
62
2
10
1.503443
20
221.540771
11
22.914820
21
221.540771
0
LINE
8
3
62
2
10
26.914820
20
221.540771
11
48.326197
21
221.540771
0
LINE
8
3
62
2
10
48.326197
20
221.540771
11
48.326197
21
209.540771
0
LINE
8
3
62
2
10
111.826197
20
114.998291
11
111.826197
21
85.922852
0
LINE
8
3
62
2
10
111.826197
20
81.922852
11
111.826197
21
52.847412
0
LINE
8
3
62
2
10
111.826197
20
52.847412
11
90.414820
21
52.847412
0
LINE
8
3
62
2
10
86.414820
20
52.847412
11
65.003443
21
52.847412
0
LINE
8
3
62
2
10
65.003443
20
52.847412
11
65.003443
21
81.922852
0
LINE
8
3
62
2
10
65.003443
20
85.922852
11
65.003443
21
114.998291
0
LINE
8
3
62
2
10
111.826197
20
129.953369
11
111.826197
21
117.989258
0
LINE
8
3
62
2
10
111.826197
20
117.989258
11
106.373829
21
117.989258
0
LINE
8
3
62
2
10
105.173829
20
117.989258
11
99.721461
21
117.989258
0
LINE
8
3
62
2
10
99.721461
20
117.989258
11
99.721461
21
114.998291
0
LINE
8
3
62
2
10
99.721461
20
114.998291
11
105.173829
21
114.998291
0
LINE
8
3
62
2
10
106.373829
20
114.998291
11
111.826197
21
114.998291
0
LINE
8
3
62
2
10
65.003443
20
114.998291
11
70.473878
21
114.998291
0
LINE
8
3
62
2
10
71.673878
20
114.998291
11
77.144313
21
114.998291
0
LINE
8
3
62
2
10
77.144313
20
114.998291
11
77.144313
21
117.989258
0
LINE
8
3
62
2
10
77.144313
20
117.989258
11
71.673878
21
117.989258
0
LINE
8
3
62
2
10
70.473878
20
117.989258
11
65.003443
21
117.989258
0
LINE
8
3
62
2
10
65.003443
20
117.989258
11
65.003443
21
129.953369
0
LINE
8
3
62
2
10
111.826197
20
207.847412
11
106.373829
21
207.847412
0
LINE
8
3
62
2
10
105.173829
20
207.847412
11
99.721461
21
207.847412
0
LINE
8
3
62
2
10
99.721461
20
207.847412
11
99.721461
21
204.856201
0
LINE
8
3
62
2
10
99.721461
20
204.856201
11
105.173829
21
204.856201
0
LINE
8
3
62
2
10
106.373829
20
204.856201
11
111.826197
21
204.856201
0
LINE
8
3
62
2
10
111.826197
20
204.856201
11
111.826197
21
192.860596
0
LINE
8
3
62
2
10
111.826197
20
192.860596
11
106.373829
21
192.860596
0
LINE
8
3
62
2
10
105.173829
20
192.860596
11
99.721461
21
192.860596
0
LINE
8
3
62
2
10
99.721461
20
192.860596
11
99.721461
21
189.869385
0
LINE
8
3
62
2
10
99.721461
20
189.869385
11
105.173829
21
189.869385
0
LINE
8
3
62
2
10
106.373829
20
189.869385
11
111.826197
21
189.869385
0
LINE
8
3
62
2
10
111.826197
20
189.869385
11
111.826197
21
177.873291
0
LINE
8
3
62
2
10
111.826197
20
177.873291
11
106.373829
21
177.873291
0
LINE
8
3
62
2
10
105.173829
20
177.873291
11
99.721461
21
177.873291
0
LINE
8
3
62
2
10
99.721461
20
177.873291
11
99.721461
21
174.882324
0
LINE
8
3
62
2
10
99.721461
20
174.882324
11
105.173829
21
174.882324
0
LINE
8
3
62
2
10
106.373829
20
174.882324
11
111.826197
21
174.882324
0
LINE
8
3
62
2
10
111.826197
20
174.882324
11
111.826197
21
162.886475
0
LINE
8
3
62
2
10
111.826197
20
162.886475
11
106.373829
21
162.886475
0
LINE
8
3
62
2
10
105.173829
20
162.886475
11
99.721461
21
162.886475
0
LINE
8
3
62
2
10
99.721461
20
162.886475
11
99.721461
21
159.895264
0
LINE
8
3
62
2
10
99.721461
20
159.895264
11
105.173829
21
159.895264
0
LINE
8
3
62
2
10
106.373829
20
159.895264
11
111.826197
21
159.895264
0
LINE
8
3
62
2
10
111.826197
20
159.895264
11
111.826197
21
147.899414
0
LINE
8
3
62
2
10
111.826197
20
147.899414
11
106.373829
21
147.899414
0
LINE
8
3
62
2
10
105.173829
20
147.899414
11
99.721461
21
147.899414
0
LINE
8
3
62
2
10
99.721461
20
147.899414
11
99.721461
21
144.908447
0
LINE
8
3
62
2
10
99.721461
20
144.908447
11
105.173829
21
144.908447
0
LINE
8
3
62
2
10
106.373829
20
144.908447
11
111.826197
21
144.908447
0
LINE
8
3
62
2
10
111.826197
20
144.908447
11
111.826197
21
132.944580
0
LINE
8
3
62
2
10
111.826197
20
132.944580
11
106.373829
21
132.944580
0
LINE
8
3
62
2
10
105.173829
20
132.944580
11
99.721461
21
132.944580
0
LINE
8
3
62
2
10
99.721461
20
132.944580
11
99.721461
21
129.953369
0
LINE
8
3
62
2
10
99.721461
20
129.953369
11
105.173829
21
129.953369
0
LINE
8
3
62
2
10
106.373829
20
129.953369
11
111.826197
21
129.953369
0
LINE
8
3
62
2
10
65.003443
20
129.953369
11
70.473878
21
129.953369
0
LINE
8
3
62
2
10
71.673878
20
129.953369
11
77.144313
21
129.953369
0
LINE
8
3
62
2
10
77.144313
20
129.953369
11
77.144313
21
132.944580
0
LINE
8
3
62
2
10
77.144313
20
132.944580
11
71.673878
21
132.944580
0
LINE
8
3
62
2
10
70.473878
20
132.944580
11
65.003443
21
132.944580
0
LINE
8
3
62
2
10
65.003443
20
132.944580
11
65.003443
21
144.908447
0
LINE
8
3
62
2
10
65.003443
20
144.908447
11
70.473878
21
144.908447
0
LINE
8
3
62
2
10
71.673878
20
144.908447
11
77.144313
21
144.908447
0
LINE
8
3
62
2
10
77.144313
20
144.908447
11
77.144313
21
147.899414
0
LINE
8
3
62
2
10
77.144313
20
147.899414
11
71.673878
21
147.899414
0
LINE
8
3
62
2
10
70.473878
20
147.899414
11
65.003443
21
147.899414
0
LINE
8
3
62
2
10
65.003443
20
147.899414
11
65.003443
21
159.895264
0
LINE
8
3
62
2
10
65.003443
20
159.895264
11
70.473878
21
159.895264
0
LINE
8
3
62
2
10
71.673878
20
159.895264
11
77.144313
21
159.895264
0
LINE
8
3
62
2
10
77.144313
20
159.895264
11
77.144313
21
162.886475
0
LINE
8
3
62
2
10
77.144313
20
162.886475
11
71.673878
21
162.886475
0
LINE
8
3
62
2
10
70.473878
20
162.886475
11
65.003443
21
162.886475
0
LINE
8
3
62
2
10
65.003443
20
162.886475
11
65.003443
21
174.882324
0
LINE
8
3
62
2
10
65.003443
20
174.882324
11
70.473878
21
174.882324
0
LINE
8
3
62
2
10
71.673878
20
174.882324
11
77.144313
21
174.882324
0
LINE
8
3
62
2
10
77.144313
20
174.882324
11
77.144313
21
177.873291
0
LINE
8
3
62
2
10
77.144313
20
177.873291
11
71.673878
21
177.873291
0
LINE
8
3
62
2
10
70.473878
20
177.873291
11
65.003443
21
177.873291
0
LINE
8
3
62
2
10
65.003443
20
177.873291
11
65.003443
21
189.869385
0
LINE
8
3
62
2
10
65.003443
20
189.869385
11
70.473878
21
189.869385
0
LINE
8
3
62
2
10
71.673878
20
189.869385
11
77.144313
21
189.869385
0
LINE
8
3
62
2
10
77.144313
20
189.869385
11
77.144313
21
192.860596
0
LINE
8
3
62
2
10
77.144313
20
192.860596
11
71.673878
21
192.860596
0
LINE
8
3
62
2
10
70.473878
20
192.860596
11
65.003443
21
192.860596
0
LINE
8
3
62
2
10
65.003443
20
192.860596
11
65.003443
21
204.856201
0
LINE
8
3
62
2
10
65.003443
20
204.856201
11
70.473878
21
204.856201
0
LINE
8
3
62
2
10
71.673878
20
204.856201
11
77.144313
21
204.856201
0
LINE
8
3
62
2
10
77.144313
20
204.856201
11
77.144313
21
207.847412
0
LINE
8
3
62
2
10
77.144313
20
207.847412
11
71.673878
21
207.847412
0
LINE
8
3
62
2
10
70.473878
20
207.847412
11
65.003443
21
207.847412
0
LINE
8
3
62
2
10
65.003443
20
207.847412
11
65.003443
21
219.847412
0
LINE
8
3
62
2
10
65.003443
20
219.847412
11
86.414820
21
219.847412
0
LINE
8
3
62
2
10
90.414820
20
219.847412
11
111.826197
21
219.847412
0
LINE
8
3
62
2
10
111.826197
20
219.847412
11
111.826197
21
207.847412
0
LINE
8
3
62
2
10
174.479518
20
116.691650
11
174.479518
21
87.616211
0
LINE
8
3
62
2
10
174.479518
20
83.616211
11
174.479518
21
54.540771
0
LINE
8
3
62
2
10
174.479518
20
54.540771
11
153.068141
21
54.540771
0
LINE
8
3
62
2
10
149.068141
20
54.540771
11
127.656764
21
54.540771
0
LINE
8
3
62
2
10
127.656764
20
54.540771
11
127.656764
21
83.616211
0
LINE
8
3
62
2
10
127.656764
20
87.616211
11
127.656764
21
116.691650
0
LINE
8
3
62
2
10
174.479518
20
131.646729
11
174.479518
21
119.682617
0
LINE
8
3
62
2
10
174.479518
20
119.682617
11
169.027150
21
119.682617
0
LINE
8
3
62
2
10
167.827150
20
119.682617
11
162.374781
21
119.682617
0
LINE
8
3
62
2
10
162.374781
20
119.682617
11
162.374781
21
116.691650
0
LINE
8
3
62
2
10
162.374781
20
116.691650
11
167.827150
21
116.691650
0
LINE
8
3
62
2
10
169.027150
20
116.691650
11
174.479518
21
116.691650
0
LINE
8
3
62
2
10
127.656764
20
116.691650
11
133.127198
21
116.691650
0
LINE
8
3
62
2
10
134.327198
20
116.691650
11
139.797633
21
116.691650
0
LINE
8
3
62
2
10
139.797633
20
116.691650
11
139.797633
21
119.682617
0
LINE
8
3
62
2
10
139.797633
20
119.682617
11
134.327198
21
119.682617
0
LINE
8
3
62
2
10
133.127198
20
119.682617
11
127.656764
21
119.682617
0
LINE
8
3
62
2
10
127.656764
20
119.682617
11
127.656764
21
131.646729
0
LINE
8
3
62
2
10
174.479518
20
209.540771
11
169.027150
21
209.540771
0
LINE
8
3
62
2
10
167.827150
20
209.540771
11
162.374781
21
209.540771
0
LINE
8
3
62
2
10
162.374781
20
209.540771
11
162.374781
21
206.549561
0
LINE
8
3
62
2
10
162.374781
20
206.549561
11
167.827150
21
206.549561
0
LINE
8
3
62
2
10
169.027150
20
206.549561
11
174.479518
21
206.549561
0
LINE
8
3
62
2
10
174.479518
20
206.549561
11
174.479518
21
194.553955
0
LINE
8
3
62
2
10
174.479518
20
194.553955
11
169.027150
21
194.553955
0
LINE
8
3
62
2
10
167.827150
20
194.553955
11
162.374781
21
194.553955
0
LINE
8
3
62
2
10
162.374781
20
194.553955
11
162.374781
21
191.562744
0
LINE
8
3
62
2
10
162.374781
20
191.562744
11
167.827150
21
191.562744
0
LINE
8
3
62
2
10
169.027150
20
191.562744
11
174.479518
21
191.562744
0
LINE
8
3
62
2
10
174.479518
20
191.562744
11
174.479518
21
179.566650
0
LINE
8
3
62
2
10
174.479518
20
179.566650
11
169.027150
21
179.566650
0
LINE
8
3
62
2
10
167.827150
20
179.566650
11
162.374781
21
179.566650
0
LINE
8
3
62
2
10
162.374781
20
179.566650
11
162.374781
21
176.575684
0
LINE
8
3
62
2
10
162.374781
20
176.575684
11
167.827150
21
176.575684
0
LINE
8
3
62
2
10
169.027150
20
176.575684
11
174.479518
21
176.575684
0
LINE
8
3
62
2
10
174.479518
20
176.575684
11
174.479518
21
164.579834
0
LINE
8
3
62
2
10
174.479518
20
164.579834
11
169.027150
21
164.579834
0
LINE
8
3
62
2
10
167.827150
20
164.579834
11
162.374781
21
164.579834
0
LINE
8
3
62
2
10
162.374781
20
164.579834
11
162.374781
21
161.588623
0
LINE
8
3
62
2
10
162.374781
20
161.588623
11
167.827150
21
161.588623
0
LINE
8
3
62
2
10
169.027150
20
161.588623
11
174.479518
21
161.588623
0
LINE
8
3
62
2
10
174.479518
20
161.588623
11
174.479518
21
149.592773
0
LINE
8
3
62
2
10
174.479518
20
149.592773
11
169.027150
21
149.592773
0
LINE
8
3
62
2
10
167.827150
20
149.592773
11
162.374781
21
149.592773
0
LINE
8
3
62
2
10
162.374781
20
149.592773
11
162.374781
21
146.601807
0
LINE
8
3
62
2
10
162.374781
20
146.601807
11
167.827150
21
146.601807
0
LINE
8
3
62
2
10
169.027150
20
146.601807
11
174.479518
21
146.601807
0
LINE
8
3
62
2
10
174.479518
20
146.601807
11
174.479518
21
134.637939
0
LINE
8
3
62
2
10
174.479518
20
134.637939
11
169.027150
21
134.637939
0
LINE
8
3
62
2
10
167.827150
20
134.637939
11
162.374781
21
134.637939
0
LINE
8
3
62
2
10
162.374781
20
134.637939
11
162.374781
21
131.646729
0
LINE
8
3
62
2
10
162.374781
20
131.646729
11
167.827150
21
131.646729
0
LINE
8
3
62
2
10
169.027150
20
131.646729
11
174.479518
21
131.646729
0
LINE
8
3
62
2
10
127.656764
20
131.646729
11
133.127198
21
131.646729
0
LINE
8
3
62
2
10
134.327198
20
131.646729
11
139.797633
21
131.646729
0
LINE
8
3
62
2
10
139.797633
20
131.646729
11
139.797633
21
134.637939
0
LINE
8
3
62
2
10
139.797633
20
134.637939
11
134.327198
21
134.637939
0
LINE
8
3
62
2
10
133.127198
20
134.637939
11
127.656764
21
134.637939
0
LINE
8
3
62
2
10
127.656764
20
134.637939
11
127.656764
21
146.601807
0
LINE
8
3
62
2
10
127.656764
20
146.601807
11
133.127198
21
146.601807
0
LINE
8
3
62
2
10
134.327198
20
146.601807
11
139.797633
21
146.601807
0
LINE
8
3
62
2
10
139.797633
20
146.601807
11
139.797633
21
149.592773
0
LINE
8
3
62
2
10
139.797633
20
149.592773
11
134.327198
21
149.592773
0
LINE
8
3
62
2
10
133.127198
20
149.592773
11
127.656764
21
149.592773
0
LINE
8
3
62
2
10
127.656764
20
149.592773
11
127.656764
21
161.588623
0
LINE
8
3
62
2
10
127.656764
20
161.588623
11
133.127198
21
161.588623
0
LINE
8
3
62
2
10
134.327198
20
161.588623
11
139.797633
21
161.588623
0
LINE
8
3
62
2
10
139.797633
20
161.588623
11
139.797633
21
164.579834
0
LINE
8
3
62
2
10
139.797633
20
164.579834
11
134.327198
21
164.579834
0
LINE
8
3
62
2
10
133.127198
20
164.579834
11
127.656764
21
164.579834
0
LINE
8
3
62
2
10
127.656764
20
164.579834
11
127.656764
21
176.575684
0
LINE
8
3
62
2
10
127.656764
20
176.575684
11
133.127198
21
176.575684
0
LINE
8
3
62
2
10
134.327198
20
176.575684
11
139.797633
21
176.575684
0
LINE
8
3
62
2
10
139.797633
20
176.575684
11
139.797633
21
179.566650
0
LINE
8
3
62
2
10
139.797633
20
179.566650
11
134.327198
21
179.566650
0
LINE
8
3
62
2
10
133.127198
20
179.566650
11
127.656764
21
179.566650
0
LINE
8
3
62
2
10
127.656764
20
179.566650
11
127.656764
21
191.562744
0
LINE
8
3
62
2
10
127.656764
20
191.562744
11
133.127198
21
191.562744
0
LINE
8
3
62
2
10
134.327198
20
191.562744
11
139.797633
21
191.562744
0
LINE
8
3
62
2
10
139.797633
20
191.562744
11
139.797633
21
194.553955
0
LINE
8
3
62
2
10
139.797633
20
194.553955
11
134.327198
21
194.553955
0
LINE
8
3
62
2
10
133.127198
20
194.553955
11
127.656764
21
194.553955
0
LINE
8
3
62
2
10
127.656764
20
194.553955
11
127.656764
21
206.549561
0
LINE
8
3
62
2
10
127.656764
20
206.549561
11
133.127198
21
206.549561
0
LINE
8
3
62
2
10
134.327198
20
206.549561
11
139.797633
21
206.549561
0
LINE
8
3
62
2
10
139.797633
20
206.549561
11
139.797633
21
209.540771
0
LINE
8
3
62
2
10
139.797633
20
209.540771
11
134.327198
21
209.540771
0
LINE
8
3
62
2
10
133.127198
20
209.540771
11
127.656764
21
209.540771
0
LINE
8
3
62
2
10
127.656764
20
209.540771
11
127.656764
21
221.540771
0
LINE
8
3
62
2
10
127.656764
20
221.540771
11
149.068141
21
221.540771
0
LINE
8
3
62
2
10
153.068141
20
221.540771
11
174.479518
21
221.540771
0
LINE
8
3
62
2
10
174.479518
20
221.540771
11
174.479518
21
209.540771
0
LINE
8
3
62
2
10
240.519557
20
116.691650
11
240.519557
21
87.616211
0
LINE
8
3
62
2
10
240.519557
20
83.616211
11
240.519557
21
54.540771
0
LINE
8
3
62
2
10
240.519557
20
54.540771
11
219.108180
21
54.540771
0
LINE
8
3
62
2
10
215.108180
20
54.540771
11
193.696803
21
54.540771
0
LINE
8
3
62
2
10
193.696803
20
54.540771
11
193.696803
21
83.616211
0
LINE
8
3
62
2
10
193.696803
20
87.616211
11
193.696803
21
116.691650
0
LINE
8
3
62
2
10
240.519557
20
131.646729
11
240.519557
21
119.682617
0
LINE
8
3
62
2
10
240.519557
20
119.682617
11
235.067189
21
119.682617
0
LINE
8
3
62
2
10
233.867189
20
119.682617
11
228.414820
21
119.682617
0
LINE
8
3
62
2
10
228.414820
20
119.682617
11
228.414820
21
116.691650
0
LINE
8
3
62
2
10
228.414820
20
116.691650
11
233.867189
21
116.691650
0
LINE
8
3
62
2
10
235.067189
20
116.691650
11
240.519557
21
116.691650
0
LINE
8
3
62
2
10
193.696803
20
116.691650
11
199.167237
21
116.691650
0
LINE
8
3
62
2
10
200.367237
20
116.691650
11
205.837672
21
116.691650
0
LINE
8
3
62
2
10
205.837672
20
116.691650
11
205.837672
21
119.682617
0
LINE
8
3
62
2
10
205.837672
20
119.682617
11
200.367237
21
119.682617
0
LINE
8
3
62
2
10
199.167237
20
119.682617
11
193.696803
21
119.682617
0
LINE
8
3
62
2
10
193.696803
20
119.682617
11
193.696803
21
131.646729
0
LINE
8
3
62
2
10
240.519557
20
209.540771
11
235.067189
21
209.540771
0
LINE
8
3
62
2
10
233.867189
20
209.540771
11
228.414820
21
209.540771
0
LINE
8
3
62
2
10
228.414820
20
209.540771
11
228.414820
21
206.549561
0
LINE
8
3
62
2
10
228.414820
20
206.549561
11
233.867189
21
206.549561
0
LINE
8
3
62
2
10
235.067189
20
206.549561
11
240.519557
21
206.549561
0
LINE
8
3
62
2
10
240.519557
20
206.549561
11
240.519557
21
194.553955
0
LINE
8
3
62
2
10
240.519557
20
194.553955
11
235.067189
21
194.553955
0
LINE
8
3
62
2
10
233.867189
20
194.553955
11
228.414820
21
194.553955
0
LINE
8
3
62
2
10
228.414820
20
194.553955
11
228.414820
21
191.562744
0
LINE
8
3
62
2
10
228.414820
20
191.562744
11
233.867189
21
191.562744
0
LINE
8
3
62
2
10
235.067189
20
191.562744
11
240.519557
21
191.562744
0
LINE
8
3
62
2
10
240.519557
20
191.562744
11
240.519557
21
179.566650
0
LINE
8
3
62
2
10
240.519557
20
179.566650
11
235.067189
21
179.566650
0
LINE
8
3
62
2
10
233.867189
20
179.566650
11
228.414820
21
179.566650
0
LINE
8
3
62
2
10
228.414820
20
179.566650
11
228.414820
21
176.575684
0
LINE
8
3
62
2
10
228.414820
20
176.575684
11
233.867189
21
176.575684
0
LINE
8
3
62
2
10
235.067189
20
176.575684
11
240.519557
21
176.575684
0
LINE
8
3
62
2
10
240.519557
20
176.575684
11
240.519557
21
164.579834
0
LINE
8
3
62
2
10
240.519557
20
164.579834
11
235.067189
21
164.579834
0
LINE
8
3
62
2
10
233.867189
20
164.579834
11
228.414820
21
164.579834
0
LINE
8
3
62
2
10
228.414820
20
164.579834
11
228.414820
21
161.588623
0
LINE
8
3
62
2
10
228.414820
20
161.588623
11
233.867189
21
161.588623
0
LINE
8
3
62
2
10
235.067189
20
161.588623
11
240.519557
21
161.588623
0
LINE
8
3
62
2
10
240.519557
20
161.588623
11
240.519557
21
149.592773
0
LINE
8
3
62
2
10
240.519557
20
149.592773
11
235.067189
21
149.592773
0
LINE
8
3
62
2
10
233.867189
20
149.592773
11
228.414820
21
149.592773
0
LINE
8
3
62
2
10
228.414820
20
149.592773
11
228.414820
21
146.601807
0
LINE
8
3
62
2
10
228.414820
20
146.601807
11
233.867189
21
146.601807
0
LINE
8
3
62
2
10
235.067189
20
146.601807
11
240.519557
21
146.601807
0
LINE
8
3
62
2
10
240.519557
20
146.601807
11
240.519557
21
134.637939
0
LINE
8
3
62
2
10
240.519557
20
134.637939
11
235.067189
21
134.637939
0
LINE
8
3
62
2
10
233.867189
20
134.637939
11
228.414820
21
134.637939
0
LINE
8
3
62
2
10
228.414820
20
134.637939
11
228.414820
21
131.646729
0
LINE
8
3
62
2
10
228.414820
20
131.646729
11
233.867189
21
131.646729
0
LINE
8
3
62
2
10
235.067189
20
131.646729
11
240.519557
21
131.646729
0
LINE
8
3
62
2
10
193.696803
20
131.646729
11
199.167237
21
131.646729
0
LINE
8
3
62
2
10
200.367237
20
131.646729
11
205.837672
21
131.646729
0
LINE
8
3
62
2
10
205.837672
20
131.646729
11
205.837672
21
134.637939
0
LINE
8
3
62
2
10
205.837672
20
134.637939
11
200.367237
21
134.637939
0
LINE
8
3
62
2
10
199.167237
20
134.637939
11
193.696803
21
134.637939
0
LINE
8
3
62
2
10
193.696803
20
134.637939
11
193.696803
21
146.601807
0
LINE
8
3
62
2
10
193.696803
20
146.601807
11
199.167237
21
146.601807
0
LINE
8
3
62
2
10
200.367237
20
146.601807
11
205.837672
21
146.601807
0
LINE
8
3
62
2
10
205.837672
20
146.601807
11
205.837672
21
149.592773
0
LINE
8
3
62
2
10
205.837672
20
149.592773
11
200.367237
21
149.592773
0
LINE
8
3
62
2
10
199.167237
20
149.592773
11
193.696803
21
149.592773
0
LINE
8
3
62
2
10
193.696803
20
149.592773
11
193.696803
21
161.588623
0
LINE
8
3
62
2
10
193.696803
20
161.588623
11
199.167237
21
161.588623
0
LINE
8
3
62
2
10
200.367237
20
161.588623
11
205.837672
21
161.588623
0
LINE
8
3
62
2
10
205.837672
20
161.588623
11
205.837672
21
164.579834
0
LINE
8
3
62
2
10
205.837672
20
164.579834
11
200.367237
21
164.579834
0
LINE
8
3
62
2
10
199.167237
20
164.579834
11
193.696803
21
164.579834
0
LINE
8
3
62
2
10
193.696803
20
164.579834
11
193.696803
21
176.575684
0
LINE
8
3
62
2
10
193.696803
20
176.575684
11
199.167237
21
176.575684
0
LINE
8
3
62
2
10
200.367237
20
176.575684
11
205.837672
21
176.575684
0
LINE
8
3
62
2
10
205.837672
20
176.575684
11
205.837672
21
179.566650
0
LINE
8
3
62
2
10
205.837672
20
179.566650
11
200.367237
21
179.566650
0
LINE
8
3
62
2
10
199.167237
20
179.566650
11
193.696803
21
179.566650
0
LINE
8
3
62
2
10
193.696803
20
179.566650
11
193.696803
21
191.562744
0
LINE
8
3
62
2
10
193.696803
20
191.562744
11
199.167237
21
191.562744
0
LINE
8
3
62
2
10
200.367237
20
191.562744
11
205.837672
21
191.562744
0
LINE
8
3
62
2
10
205.837672
20
191.562744
11
205.837672
21
194.553955
0
LINE
8
3
62
2
10
205.837672
20
194.553955
11
200.367237
21
194.553955
0
LINE
8
3
62
2
10
199.167237
20
194.553955
11
193.696803
21
194.553955
0
LINE
8
3
62
2
10
193.696803
20
194.553955
11
193.696803
21
206.549561
0
LINE
8
3
62
2
10
193.696803
20
206.549561
11
199.167237
21
206.549561
0
LINE
8
3
62
2
10
200.367237
20
206.549561
11
205.837672
21
206.549561
0
LINE
8
3
62
2
10
205.837672
20
206.549561
11
205.837672
21
209.540771
0
LINE
8
3
62
2
10
205.837672
20
209.540771
11
200.367237
21
209.540771
0
LINE
8
3
62
2
10
199.167237
20
209.540771
11
193.696803
21
209.540771
0
LINE
8
3
62
2
10
193.696803
20
209.540771
11
193.696803
21
221.540771
0
LINE
8
3
62
2
10
193.696803
20
221.540771
11
215.108180
21
221.540771
0
LINE
8
3
62
2
10
219.108180
20
221.540771
11
240.519557
21
221.540771
0
LINE
8
3
62
2
10
240.519557
20
221.540771
11
240.519557
21
209.540771
0
LINE
8
3
62
2
10
306.559596
20
116.691650
11
306.559596
21
87.616211
0
LINE
8
3
62
2
10
306.559596
20
83.616211
11
306.559596
21
54.540771
0
LINE
8
3
62
2
10
306.559596
20
54.540771
11
285.148219
21
54.540771
0
LINE
8
3
62
2
10
281.148219
20
54.540771
11
259.736842
21
54.540771
0
LINE
8
3
62
2
10
259.736842
20
54.540771
11
259.736842
21
83.616211
0
LINE
8
3
62
2
10
259.736842
20
87.616211
11
259.736842
21
116.691650
0
LINE
8
3
62
2
10
306.559596
20
131.646729
11
306.559596
21
119.682617
0
LINE
8
3
62
2
10
306.559596
20
119.682617
11
301.107228
21
119.682617
0
LINE
8
3
62
2
10
299.907228
20
119.682617
11
294.454859
21
119.682617
0
LINE
8
3
62
2
10
294.454859
20
119.682617
11
294.454859
21
116.691650
0
LINE
8
3
62
2
10
294.454859
20
116.691650
11
299.907228
21
116.691650
0
LINE
8
3
62
2
10
301.107228
20
116.691650
11
306.559596
21
116.691650
0
LINE
8
3
62
2
10
259.736842
20
116.691650
11
265.207276
21
116.691650
0
LINE
8
3
62
2
10
266.407276
20
116.691650
11
271.877711
21
116.691650
0
LINE
8
3
62
2
10
271.877711
20
116.691650
11
271.877711
21
119.682617
0
LINE
8
3
62
2
10
271.877711
20
119.682617
11
266.407276
21
119.682617
0
LINE
8
3
62
2
10
265.207276
20
119.682617
11
259.736842
21
119.682617
0
LINE
8
3
62
2
10
259.736842
20
119.682617
11
259.736842
21
131.646729
0
LINE
8
3
62
2
10
306.559596
20
209.540771
11
301.107228
21
209.540771
0
LINE
8
3
62
2
10
299.907228
20
209.540771
11
294.454859
21
209.540771
0
LINE
8
3
62
2
10
294.454859
20
209.540771
11
294.454859
21
206.549561
0
LINE
8
3
62
2
10
294.454859
20
206.549561
11
299.907228
21
206.549561
0
LINE
8
3
62
2
10
301.107228
20
206.549561
11
306.559596
21
206.549561
0
LINE
8
3
62
2
10
306.559596
20
206.549561
11
306.559596
21
194.553955
0
LINE
8
3
62
2
10
306.559596
20
194.553955
11
301.107228
21
194.553955
0
LINE
8
3
62
2
10
299.907228
20
194.553955
11
294.454859
21
194.553955
0
LINE
8
3
62
2
10
294.454859
20
194.553955
11
294.454859
21
191.562744
0
LINE
8
3
62
2
10
294.454859
20
191.562744
11
299.907228
21
191.562744
0
LINE
8
3
62
2
10
301.107228
20
191.562744
11
306.559596
21
191.562744
0
LINE
8
3
62
2
10
306.559596
20
191.562744
11
306.559596
21
179.566650
0
LINE
8
3
62
2
10
306.559596
20
179.566650
11
301.107228
21
179.566650
0
LINE
8
3
62
2
10
299.907228
20
179.566650
11
294.454859
21
179.566650
0
LINE
8
3
62
2
10
294.454859
20
179.566650
11
294.454859
21
176.575684
0
LINE
8
3
62
2
10
294.454859
20
176.575684
11
299.907228
21
176.575684
0
LINE
8
3
62
2
10
301.107228
20
176.575684
11
306.559596
21
176.575684
0
LINE
8
3
62
2
10
306.559596
20
176.575684
11
306.559596
21
164.579834
0
LINE
8
3
62
2
10
306.559596
20
164.579834
11
301.107228
21
164.579834
0
LINE
8
3
62
2
10
299.907228
20
164.579834
11
294.454859
21
164.579834
0
LINE
8
3
62
2
10
294.454859
20
164.579834
11
294.454859
21
161.588623
0
LINE
8
3
62
2
10
294.454859
20
161.588623
11
299.907228
21
161.588623
0
LINE
8
3
62
2
10
301.107228
20
161.588623
11
306.559596
21
161.588623
0
LINE
8
3
62
2
10
306.559596
20
161.588623
11
306.559596
21
149.592773
0
LINE
8
3
62
2
10
306.559596
20
149.592773
11
301.107228
21
149.592773
0
LINE
8
3
62
2
10
299.907228
20
149.592773
11
294.454859
21
149.592773
0
LINE
8
3
62
2
10
294.454859
20
149.592773
11
294.454859
21
146.601807
0
LINE
8
3
62
2
10
294.454859
20
146.601807
11
299.907228
21
146.601807
0
LINE
8
3
62
2
10
301.107228
20
146.601807
11
306.559596
21
146.601807
0
LINE
8
3
62
2
10
306.559596
20
146.601807
11
306.559596
21
134.637939
0
LINE
8
3
62
2
10
306.559596
20
134.637939
11
301.107228
21
134.637939
0
LINE
8
3
62
2
10
299.907228
20
134.637939
11
294.454859
21
134.637939
0
LINE
8
3
62
2
10
294.454859
20
134.637939
11
294.454859
21
131.646729
0
LINE
8
3
62
2
10
294.454859
20
131.646729
11
299.907228
21
131.646729
0
LINE
8
3
62
2
10
301.107228
20
131.646729
11
306.559596
21
131.646729
0
LINE
8
3
62
2
10
259.736842
20
131.646729
11
265.207276
21
131.646729
0
LINE
8
3
62
2
10
266.407276
20
131.646729
11
271.877711
21
131.646729
0
LINE
8
3
62
2
10
271.877711
20
131.646729
11
271.877711
21
134.637939
0
LINE
8
3
62
2
10
271.877711
20
134.637939
11
266.407276
21
134.637939
0
LINE
8
3
62
2
10
265.207276
20
134.637939
11
259.736842
21
134.637939
0
LINE
8
3
62
2
10
259.736842
20
134.637939
11
259.736842
21
146.601807
0
LINE
8
3
62
2
10
259.736842
20
146.601807
11
265.207276
21
146.601807
0
LINE
8
3
62
2
10
266.407276
20
146.601807
11
271.877711
21
146.601807
0
LINE
8
3
62
2
10
271.877711
20
146.601807
11
271.877711
21
149.592773
0
LINE
8
3
62
2
10
271.877711
20
149.592773
11
266.407276
21
149.592773
0
LINE
8
3
62
2
10
265.207276
20
149.592773
11
259.736842
21
149.592773
0
LINE
8
3
62
2
10
259.736842
20
149.592773
11
259.736842
21
161.588623
0
LINE
8
3
62
2
10
259.736842
20
161.588623
11
265.207276
21
161.588623
0
LINE
8
3
62
2
10
266.407276
20
161.588623
11
271.877711
21
161.588623
0
LINE
8
3
62
2
10
271.877711
20
161.588623
11
271.877711
21
164.579834
0
LINE
8
3
62
2
10
271.877711
20
164.579834
11
266.407276
21
164.579834
0
LINE
8
3
62
2
10
265.207276
20
164.579834
11
259.736842
21
164.579834
0
LINE
8
3
62
2
10
259.736842
20
164.579834
11
259.736842
21
176.575684
0
LINE
8
3
62
2
10
259.736842
20
176.575684
11
265.207276
21
176.575684
0
LINE
8
3
62
2
10
266.407276
20
176.575684
11
271.877711
21
176.575684
0
LINE
8
3
62
2
10
271.877711
20
176.575684
11
271.877711
21
179.566650
0
LINE
8
3
62
2
10
271.877711
20
179.566650
11
266.407276
21
179.566650
0
LINE
8
3
62
2
10
265.207276
20
179.566650
11
259.736842
21
179.566650
0
LINE
8
3
62
2
10
259.736842
20
179.566650
11
259.736842
21
191.562744
0
LINE
8
3
62
2
10
259.736842
20
191.562744
11
265.207276
21
191.562744
0
LINE
8
3
62
2
10
266.407276
20
191.562744
11
271.877711
21
191.562744
0
LINE
8
3
62
2
10
271.877711
20
191.562744
11
271.877711
21
194.553955
0
LINE
8
3
62
2
10
271.877711
20
194.553955
11
266.407276
21
194.553955
0
LINE
8
3
62
2
10
265.207276
20
194.553955
11
259.736842
21
194.553955
0
LINE
8
3
62
2
10
259.736842
20
194.553955
11
259.736842
21
206.549561
0
LINE
8
3
62
2
10
259.736842
20
206.549561
11
265.207276
21
206.549561
0
LINE
8
3
62
2
10
266.407276
20
206.549561
11
271.877711
21
206.549561
0
LINE
8
3
62
2
10
271.877711
20
206.549561
11
271.877711
21
209.540771
0
LINE
8
3
62
2
10
271.877711
20
209.540771
11
266.407276
21
209.540771
0
LINE
8
3
62
2
10
265.207276
20
209.540771
11
259.736842
21
209.540771
0
LINE
8
3
62
2
10
259.736842
20
209.540771
11
259.736842
21
221.540771
0
LINE
8
3
62
2
10
259.736842
20
221.540771
11
281.148219
21
221.540771
0
LINE
8
3
62
2
10
285.148219
20
221.540771
11
306.559596
21
221.540771
0
LINE
8
3
62
2
10
306.559596
20
221.540771
11
306.559596
21
209.540771
0
ENDSEC
0
EOF
