0
SECTION
2
HEADER
9
$ACADVER
1
AC2.10
9
$LIMMAX
10
2002.133555
20
-2835.519898
9
$LIMMIN
10
1517.132973
20
-3107.519891
0
ENDSEC
0
SECTION
2
TABLES
0
TABLE
2
LTYPE
0
LTYPE
70
1
2
CONTINUOUS
3
Solid Line
72
65
73
0
40
0.000000
0
ENDTAB
0
TABLE
2
LAYER
70
145
0
LAYER
2
4
70
64
62
4
6
CONTINUOUS
0
LAYER
2
5
70
64
62
5
6
CONTINUOUS
0
LAYER
2
2
70
64
62
1
6
CONTINUOUS
0
LAYER
2
3
70
64
62
2
6
CONTINUOUS
0
LAYER
2
1
70
64
62
12
6
CONTINUOUS
0
LAYER
2
0
70
64
62
7
6
CONTINUOUS
0
ENDTAB
0
TABLE
2
STYLE
70
1
0
STYLE
2
STANDARD
70
0
40
0.000000
41
1.000000
50
0.000000
71
0
42
0.200000
3
TXT
0
ENDTAB
0
TABLE
2
VIEW
70
0
0
ENDTAB
0
ENDSEC
0
SECTION
2
BLOCKS
0
ENDSEC
0
SECTION
2
ENTITIES
0
LINE
8
2
62
1
10
1818.633478
20
-3038.186604
11
1818.633478
21
-3031.886593
0
LINE
8
2
62
1
10
1818.633478
20
-3030.486593
11
1818.633478
21
-3024.186583
0
ARC
8
2
62
1
10
1815.633473
20
-3024.186600
40
3.000005
50
0.000337
51
179.999663
0
LINE
8
2
62
1
10
1812.633469
20
-3024.186583
11
1812.633469
21
-3030.486593
0
LINE
8
2
62
1
10
1812.633469
20
-3031.886593
11
1812.633469
21
-3038.186604
0
ARC
8
2
62
1
10
1815.633473
20
-3038.186587
40
3.000005
50
180.000337
51
359.999663
0
LINE
8
2
62
1
10
1802.633665
20
-3038.186604
11
1802.633665
21
-3031.886593
0
LINE
8
2
62
1
10
1802.633665
20
-3030.486593
11
1802.633665
21
-3024.186583
0
ARC
8
2
62
1
10
1799.633661
20
-3024.186600
40
3.000005
50
0.000337
51
179.999663
0
LINE
8
2
62
1
10
1796.633656
20
-3024.186583
11
1796.633656
21
-3030.486593
0
LINE
8
2
62
1
10
1796.633656
20
-3031.886593
11
1796.633656
21
-3038.186604
0
ARC
8
2
62
1
10
1799.633661
20
-3038.186587
40
3.000005
50
180.000337
51
359.999663
0
ARC
8
2
62
1
10
1898.814459
20
-3031.186744
40
20.180995
50
167.477391
51
192.521223
0
LINE
8
2
62
1
10
1868.655850
20
-2950.687202
11
1894.146552
21
-2950.687202
0
LINE
8
2
62
1
10
1898.146552
20
-2950.687202
11
1923.637254
21
-2950.687202
0
LINE
8
2
62
1
10
1972.133545
20
-2872.519902
11
1970.336007
21
-2859.501101
0
LINE
8
2
62
1
10
1969.788907
20
-2855.538692
11
1967.991369
21
-2842.519891
0
LINE
8
2
62
1
10
1967.991369
20
-2842.519891
11
1941.901919
21
-2842.519891
0
LINE
8
2
62
1
10
1937.901919
20
-2842.519891
11
1885.723020
21
-2842.519891
0
LINE
8
2
62
1
10
1881.723020
20
-2842.519891
11
1829.544120
21
-2842.519891
0
LINE
8
2
62
1
10
1825.544120
20
-2842.519891
11
1773.365220
21
-2842.519891
0
LINE
8
2
62
1
10
1769.365220
20
-2842.519891
11
1743.275770
21
-2842.519891
0
LINE
8
2
62
1
10
1743.275770
20
-2842.519891
11
1741.478217
21
-2855.538693
0
LINE
8
2
62
1
10
1740.931113
20
-2859.501101
11
1739.133559
21
-2872.519902
0
LINE
8
2
62
1
10
1972.133545
20
-2872.519902
11
1985.151094
21
-2874.255577
0
LINE
8
2
62
1
10
1989.116006
20
-2874.784233
11
2002.133555
21
-2876.519908
0
LINE
8
2
62
1
10
2002.133555
20
-2876.519908
11
2002.133555
21
-2906.186576
0
LINE
8
2
62
1
10
2002.133555
20
-2910.186576
11
2002.133555
21
-2969.519912
0
LINE
8
2
62
1
10
2002.133555
20
-2973.519912
11
2002.133555
21
-3032.853248
0
LINE
8
2
62
1
10
2002.133555
20
-3036.853248
11
2002.133555
21
-3066.519916
0
LINE
8
2
62
1
10
2002.133555
20
-3066.519916
11
1989.116006
21
-3068.255576
0
LINE
8
2
62
1
10
1985.151094
20
-3068.784227
11
1972.133545
21
-3070.519887
0
LINE
8
2
62
1
10
1554.132977
20
-2872.519902
11
1537.621389
21
-2874.304941
0
LINE
8
2
62
1
10
1533.644561
20
-2874.734869
11
1517.132973
21
-2876.519908
0
LINE
8
2
62
1
10
1517.132973
20
-2876.519908
11
1517.132973
21
-2906.186576
0
LINE
8
2
62
1
10
1517.132973
20
-2910.186576
11
1517.132973
21
-2969.519912
0
LINE
8
2
62
1
10
1517.132973
20
-2973.519912
11
1517.132973
21
-3032.853248
0
LINE
8
2
62
1
10
1517.132973
20
-3036.853248
11
1517.132973
21
-3066.519916
0
LINE
8
2
62
1
10
1517.132973
20
-3066.519916
11
1533.644561
21
-3068.304939
0
LINE
8
2
62
1
10
1537.621389
20
-3068.734864
11
1554.132977
21
-3070.519887
0
LINE
8
2
62
1
10
1671.133173
20
-2872.519902
11
1669.435306
21
-2856.009408
0
LINE
8
2
62
1
10
1669.026121
20
-2852.030392
11
1667.328253
21
-2835.519898
0
LINE
8
2
62
1
10
1667.328253
20
-2835.519898
11
1641.980655
21
-2835.519898
0
LINE
8
2
62
1
10
1637.980655
20
-2835.519898
11
1587.285459
21
-2835.519898
0
LINE
8
2
62
1
10
1583.285459
20
-2835.519898
11
1557.937862
21
-2835.519898
0
LINE
8
2
62
1
10
1557.937862
20
-2835.519898
11
1556.240010
21
-2852.030392
0
LINE
8
2
62
1
10
1555.830829
20
-2856.009408
11
1554.132977
21
-2872.519902
0
LINE
8
2
62
1
10
1671.132573
20
-3070.519887
11
1669.434706
21
-3087.030381
0
LINE
8
2
62
1
10
1669.025521
20
-3091.009397
11
1667.327653
21
-3107.519891
0
LINE
8
2
62
1
10
1667.327653
20
-3107.519891
11
1641.980205
21
-3107.519891
0
LINE
8
2
62
1
10
1637.980205
20
-3107.519891
11
1587.285309
21
-3107.519891
0
LINE
8
2
62
1
10
1583.285309
20
-3107.519891
11
1557.937862
21
-3107.519891
0
LINE
8
2
62
1
10
1557.937862
20
-3107.519891
11
1556.240010
21
-3091.009397
0
LINE
8
2
62
1
10
1555.830829
20
-3087.030381
11
1554.132977
21
-3070.519887
0
LINE
8
2
62
1
10
1702.133556
20
-2872.519902
11
1718.633557
21
-2872.519902
0
LINE
8
2
62
1
10
1722.633557
20
-2872.519902
11
1739.133559
21
-2872.519902
0
LINE
8
2
62
1
10
1702.133556
20
-3070.519887
11
1718.633557
21
-3070.519887
0
LINE
8
2
62
1
10
1722.633557
20
-3070.519887
11
1739.133559
21
-3070.519887
0
LINE
8
2
62
1
10
1671.133173
20
-2872.519902
11
1684.633364
21
-2872.519902
0
LINE
8
2
62
1
10
1688.633364
20
-2872.519902
11
1702.133556
21
-2872.519902
0
LINE
8
2
62
1
10
1671.133173
20
-3070.519887
11
1684.633364
21
-3070.519887
0
LINE
8
2
62
1
10
1688.633364
20
-3070.519887
11
1702.133556
21
-3070.519887
0
LINE
8
2
62
1
10
1972.133545
20
-3070.519887
11
1970.336007
21
-3083.538688
0
LINE
8
2
62
1
10
1969.788907
20
-3087.501097
11
1967.991369
21
-3100.519897
0
LINE
8
2
62
1
10
1967.991369
20
-3100.519897
11
1941.901919
21
-3100.519897
0
LINE
8
2
62
1
10
1937.901919
20
-3100.519897
11
1885.723020
21
-3100.519897
0
LINE
8
2
62
1
10
1881.723020
20
-3100.519897
11
1829.544120
21
-3100.519897
0
LINE
8
2
62
1
10
1825.544120
20
-3100.519897
11
1773.365220
21
-3100.519897
0
LINE
8
2
62
1
10
1769.365220
20
-3100.519897
11
1743.275770
21
-3100.519897
0
LINE
8
2
62
1
10
1743.275770
20
-3100.519897
11
1741.478217
21
-3087.501096
0
LINE
8
2
62
1
10
1740.931113
20
-3083.538688
11
1739.133559
21
-3070.519887
0
ARC
8
2
62
1
10
1882.630755
20
-3042.188527
40
7.502144
50
332.564802
51
117.958999
0
ARC
8
2
62
1
10
1882.630797
20
-3020.184480
40
7.502118
50
242.041450
51
27.433746
0
ARC
8
2
62
1
10
1894.593871
20
-3020.742286
40
25.461546
50
257.974770
51
258.883137
0
ARC
8
2
62
1
10
1894.593871
20
-3020.742286
40
25.461546
50
258.883137
51
274.042638
0
ARC
8
2
62
1
10
1894.593871
20
-3020.742286
40
25.461546
50
283.043785
51
298.203287
0
ARC
8
2
62
1
10
1894.593977
20
-3041.630901
40
25.461546
50
101.116967
51
102.025230
0
ARC
8
2
62
1
10
1894.593977
20
-3041.630901
40
25.461546
50
85.957362
51
101.116967
0
ARC
8
2
62
1
10
1894.593977
20
-3041.630901
40
25.461546
50
61.796610
51
76.956215
0
ARC
8
2
62
1
10
1903.001891
20
-3031.186502
40
11.631557
50
327.737911
51
32.264653
0
ARC
8
2
62
1
10
1898.758339
20
-3033.865502
40
16.650000
50
32.264653
51
61.796610
0
ARC
8
2
62
1
10
1898.758219
20
-3028.507693
40
16.650000
50
298.203287
51
327.737911
0
LINE
8
2
62
1
10
1809.351648
20
-2989.353305
11
1790.565452
21
-2989.353305
0
LINE
8
2
62
1
10
1786.565452
20
-2989.353305
11
1767.779256
21
-2989.353305
0
ARC
8
2
62
1
10
1804.160652
20
-2975.129778
40
15.141174
50
290.049978
51
324.255679
0
ARC
8
2
62
1
10
1782.245114
20
-2979.190748
40
36.063266
50
2.025879
51
11.366349
0
ARC
8
2
62
1
10
1808.511952
20
-2978.261611
40
9.780000
50
324.255679
51
2.025879
0
ARC
8
2
62
1
10
1188.524044
20
-3097.888953
40
641.533290
50
11.309075
51
12.469314
0
ARC
8
2
62
1
10
1799.170927
20
-2896.534418
40
19.052408
50
344.694807
51
351.491592
0
ARC
8
2
62
1
10
1322.577957
20
-2766.106907
40
513.170000
50
344.053768
51
344.694807
0
ARC
8
2
62
1
10
1817.261002
20
-2904.841895
40
5.539951
50
82.191780
51
137.303757
0
ARC
8
2
62
1
10
1911.284351
20
-2991.592730
40
133.470000
50
137.303757
51
140.236105
0
ARC
8
2
62
1
10
1763.473780
20
-2868.599321
40
58.819739
50
316.281597
51
320.236105
0
ARC
8
2
62
1
10
1763.473780
20
-2868.599321
40
58.819739
50
308.430726
51
312.385233
0
ARC
8
2
62
1
10
1784.824477
20
-2895.507541
40
24.470000
50
289.871246
51
308.430726
0
ARC
8
2
62
1
10
1788.393507
20
-2905.382358
40
13.970000
50
248.613164
51
289.871246
0
ARC
8
2
62
1
10
1920.608232
20
-2936.678937
40
108.092302
50
190.463517
51
192.118490
0
ARC
8
2
62
1
10
1920.608232
20
-2936.678937
40
108.092302
50
189.090186
51
190.463517
0
ARC
8
2
62
1
10
1920.608232
20
-2936.678937
40
108.092302
50
185.596600
51
186.969932
0
ARC
8
2
62
1
10
1677.281379
20
-2960.522766
40
136.400000
50
5.596600
51
6.650860
0
ARC
8
2
62
1
10
1899.975284
20
-2934.555856
40
87.802711
50
173.729262
51
186.650860
0
ARC
8
2
62
1
10
1917.988035
20
-2934.179622
40
105.692534
50
168.265390
51
174.998666
0
ARC
8
2
62
1
10
1982.006489
20
-2954.525468
40
172.648885
50
164.053768
51
165.974717
0
ARC
8
2
62
1
10
1772.970251
20
-2975.129778
40
15.141174
50
215.744321
51
249.950022
0
ARC
8
2
62
1
10
1794.885790
20
-2979.190748
40
36.063266
50
168.633651
51
177.974121
0
ARC
8
2
62
1
10
1768.618951
20
-2978.261611
40
9.780000
50
177.974121
51
215.744321
0
ARC
8
2
62
1
10
2388.606860
20
-3097.888953
40
641.533290
50
167.530686
51
168.690925
0
ARC
8
2
62
1
10
1777.959976
20
-2896.534418
40
19.052408
50
188.508408
51
195.305193
0
ARC
8
2
62
1
10
2254.552947
20
-2766.106907
40
513.170000
50
195.305193
51
195.946232
0
ARC
8
2
62
1
10
1759.869901
20
-2904.841895
40
5.539951
50
42.696243
51
97.808220
0
ARC
8
2
62
1
10
1656.522671
20
-2936.678937
40
108.092302
50
347.881510
51
349.536483
0
ARC
8
2
62
1
10
1656.522671
20
-2936.678937
40
108.092302
50
349.536483
51
350.909814
0
ARC
8
2
62
1
10
1656.522671
20
-2936.678937
40
108.092302
50
353.030068
51
354.403400
0
ARC
8
2
62
1
10
1899.849524
20
-2960.522766
40
136.400000
50
173.349140
51
174.403400
0
ARC
8
2
62
1
10
1677.155620
20
-2934.555856
40
87.802711
50
353.349140
51
6.270738
0
ARC
8
2
62
1
10
1659.142869
20
-2934.179622
40
105.692534
50
5.001334
51
11.734610
0
ARC
8
2
62
1
10
1595.124415
20
-2954.525468
40
172.648885
50
14.025283
51
15.946232
0
ARC
8
2
62
1
10
1947.633824
20
-2965.142249
40
28.013992
50
133.781904
51
148.936094
0
ARC
8
2
62
1
10
1949.864730
20
-3036.192908
40
97.514110
50
87.896921
51
93.445591
0
ARC
8
2
62
1
10
1946.287893
20
-2976.786381
40
38.000000
50
93.445591
51
102.703641
0
ARC
8
2
62
1
10
1942.441698
20
-2959.724526
40
20.510000
50
102.703641
51
133.781904
0
ARC
8
2
62
1
10
1953.547099
20
-2935.916388
40
2.830000
50
267.896921
51
350.744884
0
ARC
8
2
62
1
10
1949.233987
20
-2935.213558
40
7.200000
50
350.744884
51
59.758084
0
ARC
8
2
62
1
10
1936.881848
20
-2956.400990
40
31.725143
50
59.758084
51
75.083478
0
ARC
8
2
62
1
10
1921.197593
20
-3011.032337
40
88.559569
50
74.376323
51
83.191775
0
ARC
8
2
62
1
10
1904.040917
20
-3139.773357
40
218.433839
50
82.726472
51
83.882545
0
ARC
8
2
62
1
10
1904.040917
20
-3139.773357
40
218.433839
50
84.931756
51
86.087829
0
ARC
8
2
62
1
10
1904.040917
20
-3139.773357
40
218.433839
50
86.087829
51
87.661645
0
ARC
8
2
62
1
10
1896.146552
20
-3333.098404
40
411.920000
50
87.661645
51
92.338355
0
ARC
8
2
62
1
10
1843.853846
20
-3075.010697
40
136.358063
50
87.930584
51
92.164482
0
ARC
8
2
62
1
10
1855.411256
20
-2956.400990
40
31.725143
50
104.916522
51
119.820976
0
ARC
8
2
62
1
10
1843.145487
20
-2935.001920
40
7.060000
50
119.820976
51
178.111387
0
ARC
8
2
62
1
10
1871.095511
20
-3011.032337
40
88.559569
50
96.808225
51
105.623677
0
ARC
8
2
62
1
10
1888.252187
20
-3139.773357
40
218.433839
50
96.117455
51
97.273528
0
ARC
8
2
62
1
10
1888.252187
20
-3139.773357
40
218.433839
50
93.912171
51
95.068244
0
ARC
8
2
62
1
10
1888.252187
20
-3139.773357
40
218.433839
50
92.338355
51
93.912171
0
ARC
8
2
62
1
10
1843.623559
20
-2965.248929
40
28.959618
50
30.187321
51
47.452701
0
ARC
8
2
62
1
10
1850.811292
20
-2957.417884
40
18.330000
50
47.452701
51
76.926764
0
ARC
8
2
62
1
10
1847.603828
20
-2971.230363
40
32.510000
50
76.926764
51
87.930584
0
ARC
8
2
62
1
10
1822.136906
20
-2934.309174
40
13.960000
50
353.650203
51
358.111387
0
ARC
8
2
62
1
10
1838.605252
20
-2936.141785
40
2.610000
50
173.650203
51
272.164482
0
ARC
8
2
62
1
10
1710.450851
20
-2949.966103
40
72.461005
50
38.786635
51
42.421723
0
ARC
8
2
62
1
10
1825.390614
20
-2857.895730
40
74.807986
50
218.607870
51
221.726064
0
ARC
8
2
62
1
10
1825.390614
20
-2857.895730
40
74.807986
50
224.789682
51
227.907876
0
ARC
8
2
62
1
10
1792.908033
20
-2893.854850
40
26.350000
50
227.907876
51
248.613164
0
ENDSEC
0
EOF
