0
SECTION
2
HEADER
9
$ACADVER
1
AC2.10
9
$LIMMAX
10
347.500011
20
222.498391
9
$LIMMIN
10
-137.500007
20
27.498393
0
ENDSEC
0
SECTION
2
TABLES
0
TABLE
2
LTYPE
0
LTYPE
70
1
2
CONTINUOUS
3
Solid Line
72
65
73
0
40
0.000000
0
ENDTAB
0
TABLE
2
LAYER
70
147
0
LAYER
2
4
70
64
62
4
6
CONTINUOUS
0
LAYER
2
5
70
64
62
5
6
CONTINUOUS
0
LAYER
2
2
70
64
62
1
6
CONTINUOUS
0
LAYER
2
3
70
64
62
2
6
CONTINUOUS
0
LAYER
2
1
70
64
62
12
6
CONTINUOUS
0
LAYER
2
0
70
64
62
7
6
CONTINUOUS
0
ENDTAB
0
TABLE
2
STYLE
70
1
0
STYLE
2
STANDARD
70
0
40
0.000000
41
1.000000
50
0.000000
71
0
42
0.200000
3
TXT
0
ENDTAB
0
TABLE
2
VIEW
70
0
0
ENDTAB
0
ENDSEC
0
SECTION
2
BLOCKS
0
ENDSEC
0
SECTION
2
ENTITIES
0
ARC
8
2
62
1
10
-117.499994
20
192.498398
40
5.000008
50
276.875483
51
83.124517
0
ARC
8
2
62
1
10
-117.499994
20
192.498398
40
5.000008
50
96.875483
51
263.124517
0
ARC
8
2
62
1
10
-117.499994
20
57.498386
40
5.000008
50
276.875483
51
83.124517
0
ARC
8
2
62
1
10
-117.499994
20
57.498386
40
5.000008
50
96.875483
51
263.124517
0
LINE
8
3
62
2
10
347.500011
20
222.498391
11
347.500011
21
191.998391
0
LINE
8
3
62
2
10
347.500011
20
187.998391
11
347.500011
21
126.998392
0
LINE
8
3
62
2
10
347.500011
20
122.998392
11
347.500011
21
61.998392
0
LINE
8
3
62
2
10
347.500011
20
57.998392
11
347.500011
21
27.498393
0
LINE
8
3
62
2
10
347.500011
20
27.498393
11
320.916673
21
27.498393
0
LINE
8
3
62
2
10
316.916673
20
27.498393
11
263.749999
21
27.498393
0
LINE
8
3
62
2
10
259.749999
20
27.498393
11
206.583324
21
27.498393
0
LINE
8
3
62
2
10
202.583324
20
27.498393
11
175.999987
21
27.498393
0
LINE
8
3
62
2
10
175.999987
20
27.498393
11
159.999994
21
27.498393
0
LINE
8
3
62
2
10
155.999994
20
27.498393
11
124.000010
21
27.498393
0
LINE
8
3
62
2
10
120.000010
20
27.498393
11
104.000018
21
27.498393
0
LINE
8
3
62
2
10
104.000018
20
27.498393
11
77.750014
21
27.498393
0
LINE
8
3
62
2
10
73.750014
20
27.498393
11
21.250007
21
27.498393
0
LINE
8
3
62
2
10
17.250007
20
27.498393
11
-35.250000
21
27.498393
0
LINE
8
3
62
2
10
-39.250000
20
27.498393
11
-65.500003
21
27.498393
0
LINE
8
3
62
2
10
-65.500003
20
27.498393
11
-81.500004
21
27.498393
0
LINE
8
3
62
2
10
-85.500004
20
27.498393
11
-117.500006
21
27.498393
0
LINE
8
3
62
2
10
-121.500006
20
27.498393
11
-137.500007
21
27.498393
0
LINE
8
3
62
2
10
175.999987
20
27.498393
11
175.999987
21
57.998392
0
LINE
8
3
62
2
10
175.999987
20
61.998392
11
175.999987
21
122.998392
0
LINE
8
3
62
2
10
175.999987
20
126.998392
11
175.999987
21
187.998391
0
LINE
8
3
62
2
10
175.999987
20
191.998391
11
175.999987
21
222.498391
0
LINE
8
3
62
2
10
-137.500007
20
222.498391
11
-121.500006
21
222.498391
0
LINE
8
3
62
2
10
-117.500006
20
222.498391
11
-85.500004
21
222.498391
0
LINE
8
3
62
2
10
-81.500004
20
222.498391
11
-65.500003
21
222.498391
0
LINE
8
3
62
2
10
-65.500003
20
222.498391
11
-39.250000
21
222.498391
0
LINE
8
3
62
2
10
-35.250000
20
222.498391
11
17.250007
21
222.498391
0
LINE
8
3
62
2
10
21.250007
20
222.498391
11
73.750014
21
222.498391
0
LINE
8
3
62
2
10
77.750014
20
222.498391
11
104.000018
21
222.498391
0
LINE
8
3
62
2
10
104.000018
20
222.498391
11
120.000010
21
222.498391
0
LINE
8
3
62
2
10
124.000010
20
222.498391
11
155.999994
21
222.498391
0
LINE
8
3
62
2
10
159.999994
20
222.498391
11
175.999987
21
222.498391
0
LINE
8
3
62
2
10
175.999987
20
222.498391
11
202.583324
21
222.498391
0
LINE
8
3
62
2
10
206.583324
20
222.498391
11
259.749999
21
222.498391
0
LINE
8
3
62
2
10
263.749999
20
222.498391
11
316.916673
21
222.498391
0
LINE
8
3
62
2
10
320.916673
20
222.498391
11
347.500011
21
222.498391
0
LINE
8
3
62
2
10
104.000018
20
222.498391
11
104.000018
21
191.998391
0
LINE
8
3
62
2
10
104.000018
20
187.998391
11
104.000018
21
126.998392
0
LINE
8
3
62
2
10
104.000018
20
122.998392
11
104.000018
21
61.998392
0
LINE
8
3
62
2
10
104.000018
20
57.998392
11
104.000018
21
27.498393
0
LINE
8
3
62
2
10
-65.500003
20
27.498393
11
-65.500003
21
57.998392
0
LINE
8
3
62
2
10
-65.500003
20
61.998392
11
-65.500003
21
122.998392
0
LINE
8
3
62
2
10
-65.500003
20
126.998392
11
-65.500003
21
187.998391
0
LINE
8
3
62
2
10
-65.500003
20
191.998391
11
-65.500003
21
222.498391
0
LINE
8
3
62
2
10
-137.500007
20
27.498393
11
-137.500007
21
57.998392
0
LINE
8
3
62
2
10
-137.500007
20
61.998392
11
-137.500007
21
122.998392
0
LINE
8
3
62
2
10
-137.500007
20
126.998392
11
-137.500007
21
187.998391
0
LINE
8
3
62
2
10
-137.500007
20
191.998391
11
-137.500007
21
222.498391
0
ENDSEC
0
EOF
