0
SECTION
2
HEADER
9
$ACADVER
1
AC2.10
9
$LIMMAX
10
297.907083
20
-23.783328
9
$LIMMIN
10
25.307099
20
-378.383338
0
ENDSEC
0
SECTION
2
TABLES
0
TABLE
2
LTYPE
0
LTYPE
70
1
2
CONTINUOUS
3
Solid Line
72
65
73
0
40
0.000000
0
ENDTAB
0
TABLE
2
LAYER
70
144
0
LAYER
2
4
70
64
62
4
6
CONTINUOUS
0
LAYER
2
5
70
64
62
5
6
CONTINUOUS
0
LAYER
2
2
70
64
62
1
6
CONTINUOUS
0
LAYER
2
3
70
64
62
2
6
CONTINUOUS
0
LAYER
2
1
70
64
62
12
6
CONTINUOUS
0
LAYER
2
0
70
64
62
7
6
CONTINUOUS
0
ENDTAB
0
TABLE
2
STYLE
70
1
0
STYLE
2
STANDARD
70
0
40
0.000000
41
1.000000
50
0.000000
71
0
42
0.200000
3
TXT
0
ENDTAB
0
TABLE
2
VIEW
70
0
0
ENDTAB
0
ENDSEC
0
SECTION
2
BLOCKS
0
ENDSEC
0
SECTION
2
ENTITIES
0
LINE
8
2
62
1
10
77.407106
20
-75.883327
11
74.407073
21
-70.687176
0
LINE
8
2
62
1
10
74.407073
20
-70.687176
11
71.407084
21
-60.883327
0
LINE
8
2
62
1
10
71.407084
20
-60.883327
11
63.357095
21
-60.883327
0
LINE
8
2
62
1
10
59.357095
20
-60.883327
11
51.307105
21
-60.883327
0
LINE
8
2
62
1
10
51.307105
20
-60.883327
11
48.307073
21
-70.687176
0
LINE
8
2
62
1
10
48.307073
20
-70.687176
11
45.307084
21
-75.883327
0
LINE
8
2
62
1
10
45.307084
20
-75.883327
11
44.207108
21
-76.983330
0
LINE
8
2
62
1
10
44.207108
20
-76.983330
11
36.757104
21
-76.983330
0
LINE
8
2
62
1
10
32.757104
20
-76.983330
11
25.307099
21
-76.983330
0
LINE
8
2
62
1
10
25.307099
20
-76.983330
11
25.307099
21
-106.008330
0
LINE
8
2
62
1
10
25.307099
20
-110.008330
11
25.307099
21
-168.058331
0
LINE
8
2
62
1
10
25.307099
20
-172.058331
11
25.307099
21
-230.108332
0
LINE
8
2
62
1
10
25.307099
20
-234.108332
11
25.307099
21
-292.158333
0
LINE
8
2
62
1
10
25.307099
20
-296.158333
11
25.307099
21
-325.183334
0
LINE
8
2
62
1
10
25.307099
20
-325.183334
11
32.757103
21
-325.183334
0
LINE
8
2
62
1
10
36.757103
20
-325.183334
11
44.207108
21
-325.183334
0
LINE
8
2
62
1
10
44.207108
20
-325.183334
11
45.307084
21
-326.283331
0
LINE
8
2
62
1
10
45.307084
20
-326.283331
11
48.307073
21
-331.479483
0
LINE
8
2
62
1
10
48.307073
20
-331.479483
11
51.307105
21
-341.283320
0
LINE
8
2
62
1
10
51.307105
20
-341.283320
11
59.357095
21
-341.283320
0
LINE
8
2
62
1
10
63.357095
20
-341.283320
11
71.407084
21
-341.283320
0
LINE
8
2
62
1
10
71.407084
20
-341.283320
11
74.407073
21
-331.479483
0
LINE
8
2
62
1
10
74.407073
20
-331.479483
11
77.407106
21
-326.283331
0
LINE
8
2
62
1
10
77.407106
20
-326.283331
11
78.457085
21
-330.201977
0
LINE
8
2
62
1
10
78.457085
20
-330.201977
11
78.457085
21
-342.292654
0
LINE
8
2
62
1
10
78.457085
20
-346.292654
11
78.457085
21
-358.383332
0
LINE
8
2
62
1
10
78.457085
20
-358.383332
11
80.007076
21
-360.433336
0
LINE
8
2
62
1
10
80.007076
20
-360.433336
11
80.007076
21
-367.408337
0
LINE
8
2
62
1
10
80.007076
20
-371.408337
11
80.007076
21
-378.383338
0
LINE
8
2
62
1
10
80.007076
20
-378.383338
11
105.207074
21
-378.383338
0
LINE
8
2
62
1
10
109.207074
20
-378.383338
11
159.607070
21
-378.383338
0
LINE
8
2
62
1
10
163.607070
20
-378.383338
11
214.007065
21
-378.383338
0
LINE
8
2
62
1
10
218.007065
20
-378.383338
11
243.207063
21
-378.383338
0
LINE
8
2
62
1
10
243.207063
20
-378.383338
11
243.207063
21
-371.408337
0
LINE
8
2
62
1
10
243.207063
20
-367.408337
11
243.207063
21
-360.433336
0
LINE
8
2
62
1
10
243.207063
20
-360.433336
11
244.757098
21
-358.383332
0
LINE
8
2
62
1
10
244.757098
20
-358.383332
11
244.757098
21
-346.292654
0
LINE
8
2
62
1
10
244.757098
20
-342.292654
11
244.757098
21
-330.201977
0
LINE
8
2
62
1
10
244.757098
20
-330.201977
11
245.807076
21
-326.283331
0
LINE
8
2
62
1
10
245.807076
20
-326.283331
11
248.807066
21
-331.479483
0
LINE
8
2
62
1
10
248.807066
20
-331.479483
11
251.807098
21
-341.283320
0
LINE
8
2
62
1
10
251.807098
20
-341.283320
11
259.857087
21
-341.283320
0
LINE
8
2
62
1
10
263.857087
20
-341.283320
11
271.907077
21
-341.283320
0
LINE
8
2
62
1
10
271.907077
20
-341.283320
11
274.907066
21
-331.479483
0
LINE
8
2
62
1
10
274.907066
20
-331.479483
11
277.907077
21
-326.283331
0
LINE
8
2
62
1
10
277.907077
20
-326.283331
11
279.007074
21
-325.183334
0
LINE
8
2
62
1
10
279.007074
20
-325.183334
11
286.457079
21
-325.183334
0
LINE
8
2
62
1
10
290.457079
20
-325.183334
11
297.907083
21
-325.183334
0
LINE
8
2
62
1
10
297.907083
20
-325.183334
11
297.907083
21
-296.158333
0
LINE
8
2
62
1
10
297.907083
20
-292.158333
11
297.907083
21
-234.108332
0
LINE
8
2
62
1
10
297.907083
20
-230.108332
11
297.907083
21
-172.058331
0
LINE
8
2
62
1
10
297.907083
20
-168.058331
11
297.907083
21
-110.008330
0
LINE
8
2
62
1
10
297.907083
20
-106.008330
11
297.907083
21
-76.983330
0
LINE
8
2
62
1
10
297.907083
20
-76.983330
11
290.457079
21
-76.983330
0
LINE
8
2
62
1
10
286.457079
20
-76.983330
11
279.007074
21
-76.983330
0
LINE
8
2
62
1
10
279.007074
20
-76.983330
11
277.907077
21
-75.883327
0
LINE
8
2
62
1
10
277.907077
20
-75.883327
11
274.907066
21
-70.687176
0
LINE
8
2
62
1
10
274.907066
20
-70.687176
11
271.907077
21
-60.883328
0
LINE
8
2
62
1
10
271.907077
20
-60.883328
11
263.857087
21
-60.883328
0
LINE
8
2
62
1
10
259.857087
20
-60.883328
11
251.807098
21
-60.883328
0
LINE
8
2
62
1
10
251.807098
20
-60.883328
11
248.807066
21
-70.687176
0
LINE
8
2
62
1
10
248.807066
20
-70.687176
11
245.807076
21
-75.883327
0
LINE
8
2
62
1
10
245.807076
20
-75.883327
11
244.757098
21
-71.964676
0
LINE
8
2
62
1
10
244.757098
20
-71.964676
11
244.757098
21
-59.874003
0
LINE
8
2
62
1
10
244.757098
20
-55.874003
11
244.757098
21
-43.783330
0
LINE
8
2
62
1
10
244.757098
20
-43.783330
11
243.207063
21
-41.733328
0
LINE
8
2
62
1
10
243.207063
20
-41.733328
11
243.207063
21
-34.758328
0
LINE
8
2
62
1
10
243.207063
20
-30.758328
11
243.207063
21
-23.783328
0
LINE
8
2
62
1
10
243.207063
20
-23.783328
11
218.007065
21
-23.783328
0
LINE
8
2
62
1
10
214.007065
20
-23.783328
11
163.607070
21
-23.783328
0
LINE
8
2
62
1
10
159.607070
20
-23.783328
11
109.207074
21
-23.783328
0
LINE
8
2
62
1
10
105.207074
20
-23.783328
11
80.007076
21
-23.783328
0
LINE
8
2
62
1
10
80.007076
20
-23.783328
11
80.007076
21
-30.758328
0
LINE
8
2
62
1
10
80.007076
20
-34.758328
11
80.007076
21
-41.733328
0
LINE
8
2
62
1
10
80.007076
20
-41.733328
11
78.457085
21
-43.783330
0
LINE
8
2
62
1
10
78.457085
20
-43.783330
11
78.457085
21
-55.874003
0
LINE
8
2
62
1
10
78.457085
20
-59.874003
11
78.457085
21
-71.964676
0
LINE
8
2
62
1
10
78.457085
20
-71.964676
11
77.407106
21
-75.883327
0
ENDSEC
0
EOF
