0
SECTION
2
HEADER
9
$ACADVER
1
AC2.10
9
$LIMMAX
10
276.499955
20
312.271304
9
$LIMMIN
10
-66.500022
20
-50.728704
0
ENDSEC
0
SECTION
2
TABLES
0
TABLE
2
LTYPE
0
LTYPE
70
1
2
CONTINUOUS
3
Solid Line
72
65
73
0
40
0.000000
0
ENDTAB
0
TABLE
2
LAYER
70
147
0
LAYER
2
4
70
64
62
4
6
CONTINUOUS
0
LAYER
2
5
70
64
62
5
6
CONTINUOUS
0
LAYER
2
2
70
64
62
1
6
CONTINUOUS
0
LAYER
2
3
70
64
62
2
6
CONTINUOUS
0
LAYER
2
1
70
64
62
12
6
CONTINUOUS
0
LAYER
2
0
70
64
62
7
6
CONTINUOUS
0
ENDTAB
0
TABLE
2
STYLE
70
1
0
STYLE
2
STANDARD
70
0
40
0.000000
41
1.000000
50
0.000000
71
0
42
0.200000
3
TXT
0
ENDTAB
0
TABLE
2
VIEW
70
0
0
ENDTAB
0
ENDSEC
0
SECTION
2
BLOCKS
0
ENDSEC
0
SECTION
2
ENTITIES
0
LINE
8
2
62
1
10
195.499955
20
21.271301
11
223.499965
21
21.271301
0
LINE
8
2
62
1
10
227.499965
20
21.271301
11
255.499976
21
21.271301
0
LINE
8
2
62
1
10
255.499976
20
21.271301
11
258.499963
21
31.075101
0
LINE
8
2
62
1
10
258.499963
20
31.075101
11
261.799952
21
36.571308
0
LINE
8
2
62
1
10
261.799952
20
36.571308
11
276.499955
21
36.571308
0
LINE
8
2
62
1
10
276.499955
20
36.571308
11
276.499955
21
65.971305
0
LINE
8
2
62
1
10
276.499955
20
69.971305
11
276.499955
21
128.771300
0
LINE
8
2
62
1
10
276.499955
20
132.771300
11
276.499955
21
191.571295
0
LINE
8
2
62
1
10
276.499955
20
195.571295
11
276.499955
21
224.971292
0
LINE
8
2
62
1
10
189.499981
20
36.271306
11
192.499968
21
31.075101
0
LINE
8
2
62
1
10
188.499962
20
32.539199
11
189.499981
21
36.271306
0
LINE
8
2
62
1
10
22.499955
20
-50.728704
11
47.999959
21
-50.728704
0
LINE
8
2
62
1
10
51.999959
20
-50.728704
11
102.999966
21
-50.728704
0
LINE
8
2
62
1
10
106.999966
20
-50.728704
11
157.999974
21
-50.728704
0
LINE
8
2
62
1
10
161.999974
20
-50.728704
11
187.499978
21
-50.728704
0
LINE
8
2
62
1
10
187.499978
20
-50.728704
11
187.499978
21
-37.061987
0
LINE
8
2
62
1
10
187.499978
20
-37.061987
11
188.499962
21
-35.728698
0
LINE
8
2
62
1
10
188.499962
20
-35.728698
11
188.499962
21
-3.594750
0
LINE
8
2
62
1
10
188.499962
20
0.405250
11
188.499962
21
32.539199
0
LINE
8
2
62
1
10
192.499968
20
31.075101
11
195.499955
21
21.271301
0
LINE
8
2
62
1
10
276.499955
20
224.971292
11
261.799952
21
224.971292
0
LINE
8
2
62
1
10
261.799952
20
224.971292
11
258.499963
21
230.467500
0
LINE
8
2
62
1
10
258.499963
20
230.467500
11
255.499976
21
240.271300
0
LINE
8
2
62
1
10
255.499976
20
240.271300
11
227.499965
21
240.271300
0
LINE
8
2
62
1
10
223.499965
20
240.271300
11
195.499955
21
240.271300
0
LINE
8
2
62
1
10
188.499962
20
297.271299
11
187.499978
21
298.604587
0
LINE
8
2
62
1
10
187.499978
20
298.604587
11
187.499978
21
312.271304
0
LINE
8
2
62
1
10
187.499978
20
312.271304
11
161.999974
21
312.271304
0
LINE
8
2
62
1
10
157.999974
20
312.271304
11
106.999966
21
312.271304
0
LINE
8
2
62
1
10
102.999966
20
312.271304
11
51.999959
21
312.271304
0
LINE
8
2
62
1
10
47.999959
20
312.271304
11
22.499955
21
312.271304
0
LINE
8
2
62
1
10
195.499955
20
240.271300
11
192.499968
21
230.467500
0
LINE
8
2
62
1
10
192.499968
20
230.467500
11
189.499981
21
225.271295
0
LINE
8
2
62
1
10
189.499981
20
225.271295
11
188.499962
21
229.003401
0
LINE
8
2
62
1
10
188.499962
20
229.003401
11
188.499962
21
261.137350
0
LINE
8
2
62
1
10
188.499962
20
265.137350
11
188.499962
21
297.271299
0
LINE
8
2
62
1
10
21.499971
20
297.271299
11
21.499971
21
265.137350
0
LINE
8
2
62
1
10
21.499971
20
261.137350
11
21.499971
21
229.003401
0
LINE
8
2
62
1
10
21.499971
20
229.003401
11
20.499952
21
225.271295
0
LINE
8
2
62
1
10
20.499952
20
225.271295
11
17.499965
21
230.467500
0
LINE
8
2
62
1
10
17.499965
20
230.467500
11
14.499978
21
240.271300
0
LINE
8
2
62
1
10
22.499955
20
312.271304
11
22.499955
21
298.604587
0
LINE
8
2
62
1
10
22.499955
20
298.604587
11
21.499971
21
297.271299
0
LINE
8
2
62
1
10
14.499978
20
240.271300
11
-13.500032
21
240.271300
0
LINE
8
2
62
1
10
-17.500032
20
240.271300
11
-45.500043
21
240.271300
0
LINE
8
2
62
1
10
-45.500043
20
240.271300
11
-48.500030
21
230.467500
0
LINE
8
2
62
1
10
-48.500030
20
230.467500
11
-51.800019
21
224.971292
0
LINE
8
2
62
1
10
-51.800019
20
224.971292
11
-66.500022
21
224.971292
0
LINE
8
2
62
1
10
-45.500043
20
21.271301
11
-17.500032
21
21.271301
0
LINE
8
2
62
1
10
-13.500032
20
21.271301
11
14.499978
21
21.271301
0
LINE
8
2
62
1
10
14.499978
20
21.271301
11
17.499965
21
31.075101
0
LINE
8
2
62
1
10
21.499971
20
32.539199
11
21.499971
21
0.405250
0
LINE
8
2
62
1
10
21.499971
20
-3.594750
11
21.499971
21
-35.728698
0
LINE
8
2
62
1
10
21.499971
20
-35.728698
11
22.499955
21
-37.061987
0
LINE
8
2
62
1
10
22.499955
20
-37.061987
11
22.499955
21
-50.728704
0
LINE
8
2
62
1
10
17.499965
20
31.075101
11
20.499952
21
36.271306
0
LINE
8
2
62
1
10
20.499952
20
36.271306
11
21.499971
21
32.539199
0
LINE
8
2
62
1
10
-66.500022
20
224.971292
11
-66.500022
21
195.571295
0
LINE
8
2
62
1
10
-66.500022
20
191.571295
11
-66.500022
21
132.771300
0
LINE
8
2
62
1
10
-66.500022
20
128.771300
11
-66.500022
21
69.971305
0
LINE
8
2
62
1
10
-66.500022
20
65.971305
11
-66.500022
21
36.571308
0
LINE
8
2
62
1
10
-66.500022
20
36.571308
11
-51.800019
21
36.571308
0
LINE
8
2
62
1
10
-51.800019
20
36.571308
11
-48.500030
21
31.075101
0
LINE
8
2
62
1
10
-48.500030
20
31.075101
11
-45.500043
21
21.271301
0
ENDSEC
0
EOF
