0
SECTION
2
HEADER
9
$ACADVER
1
AC2.10
9
$LIMMAX
10
172.053052
20
521.519134
9
$LIMMIN
10
-367.557965
20
107.073578
0
ENDSEC
0
SECTION
2
TABLES
0
TABLE
2
LTYPE
0
LTYPE
70
1
2
CONTINUOUS
3
Solid Line
72
65
73
0
40
0.000000
0
ENDTAB
0
TABLE
2
LAYER
70
143
0
LAYER
2
BOARD
70
64
62
12
6
CONTINUOUS
0
LAYER
2
03_BIG_2PT
70
64
62
10
6
CONTINUOUS
0
LAYER
2
04_BIG_3PT
70
64
62
10
6
CONTINUOUS
0
LAYER
2
01_CUT_2PT
70
64
62
12
6
CONTINUOUS
0
LAYER
2
02_CUT_3PT
70
64
62
12
6
CONTINUOUS
0
LAYER
2
09_CMB_2PT
70
64
62
2
6
CONTINUOUS
0
LAYER
2
10_CMB_3PT
70
64
62
2
6
CONTINUOUS
0
LAYER
2
TEXT
70
64
62
15
6
CONTINUOUS
0
LAYER
2
05_PRF_2PT
70
64
62
14
6
CONTINUOUS
0
LAYER
2
06_PRF_3PT
70
64
62
14
6
CONTINUOUS
0
LAYER
2
07_RIC_2PT
70
64
62
9
6
CONTINUOUS
0
LAYER
2
08_RIC_3PT
70
64
62
9
6
CONTINUOUS
0
LAYER
2
0
70
64
62
7
6
CONTINUOUS
0
ENDTAB
0
TABLE
2
STYLE
70
1
0
STYLE
2
STANDARD
70
0
40
0.000000
41
1.000000
50
0.000000
71
0
42
0.200000
3
TXT
0
ENDTAB
0
TABLE
2
VIEW
70
0
0
ENDTAB
0
ENDSEC
0
SECTION
2
BLOCKS
0
ENDSEC
0
SECTION
2
ENTITIES
0
LINE
8
01_CUT_2PT
10
152.053052
20
321.319257
11
152.053052
21
412.719134
0
LINE
8
01_CUT_2PT
10
63.553052
20
232.519257
11
-27.446948
21
232.519257
0
LINE
8
01_CUT_2PT
10
107.552808
20
292.519012
11
137.553052
21
292.519012
0
LINE
8
01_CUT_2PT
10
114.551421
20
306.819012
11
131.864191
21
306.819012
0
LINE
8
01_CUT_2PT
10
152.053052
20
321.319257
11
137.553052
21
306.819256
0
LINE
8
01_CUT_2PT
10
137.553052
20
292.519012
11
137.553052
21
306.819256
0
LINE
8
01_CUT_2PT
10
93.053052
20
276.519257
11
88.053052
21
261.519257
0
LINE
8
01_CUT_2PT
10
63.553052
20
232.519257
11
78.052808
21
247.019012
0
LINE
8
01_CUT_2PT
10
78.052808
20
247.019012
11
78.052808
21
257.519257
0
ARC
8
01_CUT_2PT
10
114.550876
20
304.819880
40
1.999132
50
89.984367
51
135.006529
0
LINE
8
01_CUT_2PT
10
113.137114
20
306.233319
11
112.722808
21
305.819012
0
LINE
8
01_CUT_2PT
10
93.053052
20
276.519257
11
93.053052
21
292.519012
0
LINE
8
01_CUT_2PT
10
107.552808
20
292.519012
11
107.552808
21
266.519257
0
LINE
8
01_CUT_2PT
10
107.552808
20
266.519257
11
97.060383
21
266.519257
0
LINE
8
01_CUT_2PT
10
78.052808
20
253.519012
11
83.276196
21
247.545868
0
LINE
8
01_CUT_2PT
10
88.053052
20
261.519257
11
88.053052
21
255.826407
0
ARC
8
01_CUT_2PT
10
79.982712
20
254.963807
40
8.116308
50
293.942277
51
6.100908
0
LINE
8
01_CUT_2PT
10
123.053052
20
301.819012
11
128.053052
21
306.819012
0
LINE
8
01_CUT_2PT
10
118.052974
20
306.819296
11
123.053052
21
301.819012
0
LINE
8
01_CUT_2PT
10
97.060383
20
266.519257
11
93.053052
21
276.519257
0
LINE
8
01_CUT_2PT
10
107.552808
20
441.519379
11
137.553052
21
441.519379
0
LINE
8
01_CUT_2PT
10
114.551421
20
427.219379
11
131.864191
21
427.219379
0
LINE
8
01_CUT_2PT
10
152.053052
20
412.719134
11
137.553052
21
427.219135
0
LINE
8
01_CUT_2PT
10
137.553052
20
441.519379
11
137.553052
21
427.219135
0
LINE
8
01_CUT_2PT
10
-27.446948
20
501.519134
11
63.553052
21
501.519134
0
LINE
8
01_CUT_2PT
10
93.053052
20
457.519134
11
88.053052
21
472.519134
0
LINE
8
01_CUT_2PT
10
63.553052
20
501.519134
11
78.052808
21
487.019379
0
LINE
8
01_CUT_2PT
10
78.052808
20
487.019379
11
78.052808
21
476.519134
0
ARC
8
01_CUT_2PT
10
114.550876
20
429.218511
40
1.999132
50
224.993471
51
270.015633
0
LINE
8
01_CUT_2PT
10
113.137114
20
427.805072
11
112.722808
21
428.219379
0
LINE
8
01_CUT_2PT
10
93.053052
20
457.519134
11
93.053052
21
441.519379
0
LINE
8
01_CUT_2PT
10
107.552808
20
441.519379
11
107.552808
21
467.519134
0
LINE
8
01_CUT_2PT
10
107.552808
20
467.519134
11
97.060383
21
467.519134
0
LINE
8
01_CUT_2PT
10
78.052808
20
480.519379
11
83.276196
21
486.492523
0
LINE
8
01_CUT_2PT
10
88.053052
20
472.519134
11
88.053052
21
478.211985
0
ARC
8
01_CUT_2PT
10
79.982712
20
479.074584
40
8.116308
50
353.899092
51
66.057723
0
LINE
8
01_CUT_2PT
10
123.053052
20
432.219379
11
128.053052
21
427.219379
0
LINE
8
01_CUT_2PT
10
118.052974
20
427.219095
11
123.053052
21
432.219379
0
LINE
8
01_CUT_2PT
10
97.060383
20
467.519134
11
93.053052
21
457.519134
0
LINE
8
01_CUT_2PT
10
-71.446704
20
441.519379
11
-101.446948
21
441.519379
0
LINE
8
01_CUT_2PT
10
-78.445317
20
427.219379
11
-95.758087
21
427.219379
0
LINE
8
01_CUT_2PT
10
-115.946948
20
412.719134
11
-101.446948
21
427.219135
0
LINE
8
01_CUT_2PT
10
-101.446948
20
441.519379
11
-101.446948
21
427.219135
0
LINE
8
01_CUT_2PT
10
-56.946948
20
457.519134
11
-51.946948
21
472.519134
0
LINE
8
01_CUT_2PT
10
-27.446948
20
501.519134
11
-41.946704
21
487.019379
0
LINE
8
01_CUT_2PT
10
-41.946704
20
487.019379
11
-41.946704
21
476.519134
0
ARC
8
01_CUT_2PT
10
-78.444772
20
429.218511
40
1.999132
50
269.984367
51
315.006529
0
LINE
8
01_CUT_2PT
10
-77.031010
20
427.805072
11
-76.616704
21
428.219379
0
LINE
8
01_CUT_2PT
10
-56.946948
20
457.519134
11
-56.946948
21
441.519379
0
LINE
8
01_CUT_2PT
10
-71.446704
20
441.519379
11
-71.446704
21
467.519134
0
LINE
8
01_CUT_2PT
10
-71.446704
20
467.519134
11
-60.954279
21
467.519134
0
LINE
8
01_CUT_2PT
10
-41.946704
20
480.519379
11
-47.170092
21
486.492523
0
LINE
8
01_CUT_2PT
10
-51.946948
20
472.519134
11
-51.946948
21
478.211985
0
ARC
8
01_CUT_2PT
10
-43.876608
20
479.074584
40
8.116308
50
113.942277
51
186.100908
0
LINE
8
01_CUT_2PT
10
-86.946948
20
432.219379
11
-91.946948
21
427.219379
0
LINE
8
01_CUT_2PT
10
-81.946870
20
427.219095
11
-86.946948
21
432.219379
0
LINE
8
01_CUT_2PT
10
-60.954279
20
467.519134
11
-56.946948
21
457.519134
0
LINE
8
01_CUT_2PT
10
-71.446704
20
292.519012
11
-101.446948
21
292.519012
0
LINE
8
01_CUT_2PT
10
-78.445317
20
306.819012
11
-95.758087
21
306.819012
0
LINE
8
01_CUT_2PT
10
-115.946948
20
321.319257
11
-101.446948
21
306.819256
0
LINE
8
01_CUT_2PT
10
-101.446948
20
292.519012
11
-101.446948
21
306.819256
0
LINE
8
01_CUT_2PT
10
-56.946948
20
276.519257
11
-51.946948
21
261.519257
0
LINE
8
01_CUT_2PT
10
-27.446948
20
232.519257
11
-41.946704
21
247.019012
0
LINE
8
01_CUT_2PT
10
-41.946704
20
247.019012
11
-41.946704
21
257.519257
0
ARC
8
01_CUT_2PT
10
-78.444772
20
304.819880
40
1.999132
50
44.993471
51
90.015633
0
LINE
8
01_CUT_2PT
10
-77.031010
20
306.233319
11
-76.616704
21
305.819012
0
LINE
8
01_CUT_2PT
10
-56.946948
20
276.519257
11
-56.946948
21
292.519012
0
LINE
8
01_CUT_2PT
10
-71.446704
20
292.519012
11
-71.446704
21
266.519257
0
LINE
8
01_CUT_2PT
10
-71.446704
20
266.519257
11
-60.954279
21
266.519257
0
LINE
8
01_CUT_2PT
10
-41.946704
20
253.519012
11
-47.170092
21
247.545868
0
LINE
8
01_CUT_2PT
10
-51.946948
20
261.519257
11
-51.946948
21
255.826407
0
ARC
8
01_CUT_2PT
10
-43.876608
20
254.963807
40
8.116308
50
173.899092
51
246.057723
0
LINE
8
01_CUT_2PT
10
-86.946948
20
301.819012
11
-91.946948
21
306.819012
0
LINE
8
01_CUT_2PT
10
-81.946870
20
306.819296
11
-86.946948
21
301.819012
0
LINE
8
01_CUT_2PT
10
-60.954279
20
266.519257
11
-56.946948
21
276.519257
0
LINE
8
TEXT
10
66.053052
20
248.519012
11
66.053052
21
245.519012
0
LINE
8
TEXT
10
66.053052
20
485.519379
11
66.053052
21
488.519379
0
LINE
8
TEXT
10
-29.946948
20
485.519379
11
-29.946948
21
488.519379
0
LINE
8
TEXT
10
-29.946948
20
248.519012
11
-29.946948
21
245.519012
0
LINE
8
05_PRF_2PT
10
137.553052
20
427.019135
11
137.553052
21
307.019256
0
LINE
8
05_PRF_2PT
10
66.053052
20
247.019012
11
-29.946948
21
247.019012
0
LINE
8
05_PRF_2PT
10
-29.946948
20
487.019379
11
66.053052
21
487.019379
0
LINE
8
05_PRF_2PT
10
-101.446948
20
427.019135
11
-101.446948
21
307.019256
0
LINE
8
03_BIG_2PT
10
123.053052
20
427.219379
11
123.053052
21
306.819012
0
LINE
8
03_BIG_2PT
10
108.053052
20
292.519012
11
108.053052
21
441.519379
0
LINE
8
03_BIG_2PT
10
93.053052
20
441.519379
11
93.053052
21
292.519012
0
LINE
8
03_BIG_2PT
10
93.053052
20
292.019257
11
-56.946948
21
292.019257
0
LINE
8
03_BIG_2PT
10
93.053052
20
276.519257
11
-56.946948
21
276.519257
0
LINE
8
03_BIG_2PT
10
88.053052
20
261.519257
11
-51.946948
21
261.519257
0
LINE
8
03_BIG_2PT
10
123.053052
20
301.819012
11
123.053052
21
292.519012
0
LINE
8
03_BIG_2PT
10
66.053052
20
247.019257
11
78.053052
21
247.019257
0
LINE
8
03_BIG_2PT
10
107.552808
20
292.519012
11
93.053052
21
292.519012
0
LINE
8
03_BIG_2PT
10
123.053052
20
432.219379
11
123.053052
21
441.519379
0
LINE
8
03_BIG_2PT
10
-56.946948
20
442.019134
11
93.053052
21
442.019134
0
LINE
8
03_BIG_2PT
10
-56.946948
20
457.519134
11
93.053052
21
457.519134
0
LINE
8
03_BIG_2PT
10
-51.946948
20
472.519134
11
88.053052
21
472.519134
0
LINE
8
03_BIG_2PT
10
66.053052
20
487.019134
11
78.053052
21
487.019134
0
LINE
8
03_BIG_2PT
10
107.552808
20
441.519379
11
93.053052
21
441.519379
0
LINE
8
03_BIG_2PT
10
-86.946948
20
432.219379
11
-86.946948
21
441.519379
0
LINE
8
03_BIG_2PT
10
-29.946948
20
487.019134
11
-41.946948
21
487.019134
0
LINE
8
03_BIG_2PT
10
-71.446704
20
441.519379
11
-56.946948
21
441.519379
0
LINE
8
03_BIG_2PT
10
-86.946948
20
427.219379
11
-86.946948
21
306.819012
0
LINE
8
03_BIG_2PT
10
-71.946948
20
292.519012
11
-71.946948
21
441.519379
0
LINE
8
03_BIG_2PT
10
-56.946948
20
441.519379
11
-56.946948
21
292.519012
0
LINE
8
03_BIG_2PT
10
-86.946948
20
301.819012
11
-86.946948
21
292.519012
0
LINE
8
03_BIG_2PT
10
-29.946948
20
247.019257
11
-41.946948
21
247.019257
0
LINE
8
03_BIG_2PT
10
-71.446704
20
292.519012
11
-56.946948
21
292.519012
0
LINE
8
07_RIC_2PT
10
-198.446948
20
487.019196
11
-198.446948
21
367.019196
0
LINE
8
07_RIC_2PT
10
-318.446948
20
487.019196
11
-198.446948
21
487.019196
0
LINE
8
07_RIC_2PT
10
-318.446948
20
367.019196
11
-198.446948
21
367.019196
0
LINE
8
07_RIC_2PT
10
-318.446948
20
487.019196
11
-318.446948
21
367.019196
0
LINE
8
01_CUT_2PT
10
-115.946948
20
412.719134
11
-115.946948
21
321.319257
0
TEXT
8
0
10
-11.670523
20
361.020373
11
-11.670523
21
373.018018
40
5.000000
41
1.192817
50
90.000000
72
5
1
150
0
LINE
8
0
10
-8.413066
20
442.019134
11
-6.913066
21
436.421058
0
LINE
8
0
10
-8.413066
20
442.019134
11
-9.913066
21
436.421058
0
LINE
8
0
10
-8.413066
20
292.019257
11
-9.913066
21
297.617334
0
LINE
8
0
10
-8.413066
20
292.019257
11
-6.913066
21
297.617334
0
LINE
8
0
10
-8.413066
20
442.019134
11
-8.413066
21
292.019257
0
TEXT
8
0
10
12.054229
20
314.199482
11
24.051875
21
314.199482
40
5.000000
41
1.192817
50
0.000000
72
5
1
150
0
LINE
8
0
10
-56.946948
20
310.942026
11
-51.348872
21
312.442026
0
LINE
8
0
10
-56.946948
20
310.942026
11
-51.348872
21
309.442026
0
LINE
8
0
10
93.053052
20
310.942026
11
87.454976
21
309.442026
0
LINE
8
0
10
93.053052
20
310.942026
11
87.454976
21
312.442026
0
LINE
8
0
10
-56.946948
20
310.942026
11
93.053052
21
310.942026
0
TEXT
8
0
10
-264.454375
20
421.020373
11
-264.454375
21
433.018018
40
5.000000
41
1.192817
50
90.000000
72
5
1
120
0
LINE
8
0
10
-261.196918
20
487.019196
11
-259.696918
21
481.421120
0
LINE
8
0
10
-261.196918
20
487.019196
11
-262.696918
21
481.421120
0
LINE
8
0
10
-261.196918
20
367.019196
11
-262.696918
21
372.617272
0
LINE
8
0
10
-261.196918
20
367.019196
11
-259.696918
21
372.617272
0
LINE
8
0
10
-261.196918
20
487.019196
11
-261.196918
21
367.019196
0
TEXT
8
0
10
-264.445771
20
472.219174
11
-252.448125
21
472.219174
40
5.000000
41
1.192817
50
0.000000
72
5
1
120
0
LINE
8
0
10
-318.446948
20
468.961717
11
-312.848872
21
470.461717
0
LINE
8
0
10
-318.446948
20
468.961717
11
-312.848872
21
467.461717
0
LINE
8
0
10
-198.446948
20
468.961717
11
-204.045024
21
467.461717
0
LINE
8
0
10
-198.446948
20
468.961717
11
-204.045024
21
470.461717
0
LINE
8
0
10
-318.446948
20
468.961717
11
-198.446948
21
468.961717
0
LINE
8
01_CUT_2PT
10
-332.238022
20
293.573578
11
-332.238022
21
142.573578
0
LINE
8
01_CUT_2PT
10
-164.738022
20
127.073578
11
-317.738022
21
127.073578
0
LINE
8
01_CUT_2PT
10
-316.884469
20
141.720025
11
-319.258838
21
139.345656
0
ARC
8
01_CUT_2PT
10
-317.238022
20
142.073578
40
0.500000
50
315.000000
51
90.000000
0
LINE
8
01_CUT_2PT
10
-317.238022
20
142.573578
11
-332.238022
21
142.573578
0
LINE
8
01_CUT_2PT
10
-326.738022
20
150.573578
11
-326.738022
21
159.715059
0
LINE
8
01_CUT_2PT
10
-318.909134
20
146.193871
11
-326.738022
21
150.573578
0
LINE
8
01_CUT_2PT
10
-317.738022
20
127.073578
11
-325.238022
21
132.073578
0
LINE
8
01_CUT_2PT
10
-325.238022
20
132.073578
11
-325.589392
21
129.756045
0
ARC
8
01_CUT_2PT
10
-328.736558
20
132.286624
40
4.518872
50
250.721772
51
297.671384
0
ARC
8
01_CUT_2PT
10
-327.566794
20
130.055846
40
2.000000
50
297.671384
51
351.378832
0
ARC
8
01_CUT_2PT
10
-329.238022
20
130.852920
40
3.000000
50
180.000000
51
250.721772
0
ARC
8
01_CUT_2PT
10
-328.736558
20
132.286624
40
4.518872
50
113.118469
51
126.590088
0
ARC
8
01_CUT_2PT
10
-327.762383
20
130.004743
40
7.000000
50
74.886379
51
113.118469
0
ARC
8
01_CUT_2PT
10
-324.829905
20
143.824587
40
7.148260
50
261.088396
51
321.202017
0
LINE
8
01_CUT_2PT
10
-332.238022
20
130.852920
11
-332.238022
21
134.309078
0
ARC
8
01_CUT_2PT
10
-330.238022
20
134.309078
40
2.000000
50
126.590088
51
180.000000
0
LINE
8
01_CUT_2PT
10
-317.738022
20
309.073578
11
-164.738022
21
309.073578
0
LINE
8
01_CUT_2PT
10
-316.884469
20
294.427131
11
-319.258838
21
296.801500
0
ARC
8
01_CUT_2PT
10
-317.238022
20
294.073578
40
0.500000
50
270.000000
51
45.000000
0
LINE
8
01_CUT_2PT
10
-317.238022
20
293.573578
11
-332.238022
21
293.573578
0
LINE
8
01_CUT_2PT
10
-326.738022
20
285.573578
11
-326.738022
21
276.432097
0
LINE
8
01_CUT_2PT
10
-318.909134
20
289.953285
11
-326.738022
21
285.573578
0
LINE
8
01_CUT_2PT
10
-317.738022
20
309.073578
11
-325.238022
21
304.073578
0
LINE
8
01_CUT_2PT
10
-325.238022
20
304.073578
11
-325.589392
21
306.391112
0
ARC
8
01_CUT_2PT
10
-328.736558
20
303.860533
40
4.518872
50
62.328616
51
109.278228
0
ARC
8
01_CUT_2PT
10
-327.566794
20
306.091311
40
2.000000
50
8.621168
51
62.328616
0
ARC
8
01_CUT_2PT
10
-329.238022
20
305.294236
40
3.000000
50
109.278228
51
180.000000
0
ARC
8
01_CUT_2PT
10
-328.736558
20
303.860533
40
4.518872
50
233.409912
51
246.881531
0
ARC
8
01_CUT_2PT
10
-327.762383
20
306.142414
40
7.000000
50
246.881531
51
285.113621
0
ARC
8
01_CUT_2PT
10
-324.829905
20
292.322569
40
7.148260
50
38.797983
51
98.911604
0
LINE
8
01_CUT_2PT
10
-332.238022
20
305.294236
11
-332.238022
21
301.838078
0
ARC
8
01_CUT_2PT
10
-330.238022
20
301.838078
40
2.000000
50
180.000000
51
233.409912
0
LINE
8
01_CUT_2PT
10
-165.591575
20
294.427131
11
-163.217206
21
296.801500
0
ARC
8
01_CUT_2PT
10
-165.238022
20
294.073578
40
0.500000
50
135.000000
51
270.000000
0
LINE
8
01_CUT_2PT
10
-165.238022
20
293.573578
11
-150.238022
21
293.573578
0
LINE
8
01_CUT_2PT
10
-155.738022
20
285.573578
11
-155.738022
21
276.432097
0
LINE
8
01_CUT_2PT
10
-163.566910
20
289.953285
11
-155.738022
21
285.573578
0
LINE
8
01_CUT_2PT
10
-164.738022
20
309.073578
11
-157.238022
21
304.073578
0
LINE
8
01_CUT_2PT
10
-157.238022
20
304.073578
11
-156.886652
21
306.391112
0
ARC
8
01_CUT_2PT
10
-153.739486
20
303.860533
40
4.518872
50
70.721772
51
117.671384
0
ARC
8
01_CUT_2PT
10
-154.909250
20
306.091311
40
2.000000
50
117.671384
51
171.378832
0
ARC
8
01_CUT_2PT
10
-153.238022
20
305.294236
40
3.000000
50
360.000000
51
70.721772
0
ARC
8
01_CUT_2PT
10
-153.739486
20
303.860533
40
4.518872
50
293.118469
51
306.590088
0
ARC
8
01_CUT_2PT
10
-154.713660
20
306.142414
40
7.000000
50
254.886379
51
293.118469
0
ARC
8
01_CUT_2PT
10
-157.646139
20
292.322569
40
7.148260
50
81.088396
51
141.202017
0
LINE
8
01_CUT_2PT
10
-150.238022
20
305.294236
11
-150.238022
21
301.838078
0
ARC
8
01_CUT_2PT
10
-152.238022
20
301.838078
40
2.000000
50
306.590088
51
360.000000
0
LINE
8
01_CUT_2PT
10
-150.238022
20
293.573578
11
-150.238022
21
142.573578
0
LINE
8
01_CUT_2PT
10
-165.591575
20
141.720025
11
-163.217206
21
139.345656
0
ARC
8
01_CUT_2PT
10
-165.238022
20
142.073578
40
0.500000
50
90.000000
51
225.000000
0
LINE
8
01_CUT_2PT
10
-165.238022
20
142.573578
11
-150.238022
21
142.573578
0
LINE
8
01_CUT_2PT
10
-155.738022
20
150.573578
11
-155.738022
21
159.715059
0
LINE
8
01_CUT_2PT
10
-163.566910
20
146.193871
11
-155.738022
21
150.573578
0
LINE
8
01_CUT_2PT
10
-164.738022
20
127.073578
11
-157.238022
21
132.073578
0
LINE
8
01_CUT_2PT
10
-157.238022
20
132.073578
11
-156.886652
21
129.756045
0
ARC
8
01_CUT_2PT
10
-153.739486
20
132.286624
40
4.518872
50
242.328616
51
289.278228
0
ARC
8
01_CUT_2PT
10
-154.909250
20
130.055846
40
2.000000
50
188.621168
51
242.328616
0
ARC
8
01_CUT_2PT
10
-153.238022
20
130.852920
40
3.000000
50
289.278228
51
0.000000
0
ARC
8
01_CUT_2PT
10
-153.739486
20
132.286624
40
4.518872
50
53.409912
51
66.881531
0
ARC
8
01_CUT_2PT
10
-154.713660
20
130.004743
40
7.000000
50
66.881531
51
105.113621
0
ARC
8
01_CUT_2PT
10
-157.646139
20
143.824587
40
7.148260
50
218.797983
51
278.911604
0
LINE
8
01_CUT_2PT
10
-150.238022
20
130.852920
11
-150.238022
21
134.309078
0
ARC
8
01_CUT_2PT
10
-152.238022
20
134.309078
40
2.000000
50
0.000000
51
53.409912
0
LINE
8
03_BIG_2PT
10
-317.238022
20
293.573578
11
-317.238022
21
142.573578
0
LINE
8
03_BIG_2PT
10
-165.738022
20
142.073578
11
-316.738022
21
142.073578
0
LINE
8
03_BIG_2PT
10
-317.738022
20
140.866471
11
-317.738022
21
127.073578
0
LINE
8
03_BIG_2PT
10
-316.738022
20
294.073578
11
-165.738022
21
294.073578
0
LINE
8
03_BIG_2PT
10
-317.738022
20
295.280685
11
-317.738022
21
309.073578
0
LINE
8
03_BIG_2PT
10
-164.738022
20
295.280685
11
-164.738022
21
309.073578
0
LINE
8
03_BIG_2PT
10
-165.238022
20
293.573578
11
-165.238022
21
142.573578
0
LINE
8
03_BIG_2PT
10
-164.738022
20
140.866471
11
-164.738022
21
127.073578
0
TEXT
8
0
10
-360.807573
20
212.074756
11
-360.807573
21
224.072401
40
5.000000
41
1.192817
50
90.000000
72
5
1
182
0
LINE
8
0
10
-320.738022
20
309.073578
11
-360.550116
21
309.073578
0
LINE
8
0
10
-320.738022
20
127.073578
11
-360.550116
21
127.073578
0
LINE
8
0
10
-357.550116
20
309.073578
11
-356.050116
21
303.475502
0
LINE
8
0
10
-357.550116
20
309.073578
11
-359.050116
21
303.475502
0
LINE
8
0
10
-357.550116
20
127.073578
11
-359.050116
21
132.671654
0
LINE
8
0
10
-357.550116
20
127.073578
11
-356.050116
21
132.671654
0
LINE
8
0
10
-357.550116
20
309.073578
11
-357.550116
21
127.073578
0
TEXT
8
0
10
-247.236845
20
117.279930
11
-235.239199
21
117.279930
40
5.000000
41
1.192817
50
0.000000
72
5
1
182
0
LINE
8
0
10
-332.238022
20
127.852920
11
-332.238022
21
111.022473
0
LINE
8
0
10
-150.238022
20
127.852920
11
-150.238022
21
111.022473
0
LINE
8
0
10
-332.238022
20
114.022473
11
-326.639946
21
115.522473
0
LINE
8
0
10
-332.238022
20
114.022473
11
-326.639946
21
112.522473
0
LINE
8
0
10
-150.238022
20
114.022473
11
-155.836098
21
112.522473
0
LINE
8
0
10
-150.238022
20
114.022473
11
-155.836098
21
115.522473
0
LINE
8
0
10
-332.238022
20
114.022473
11
-150.238022
21
114.022473
0
TEXT
8
0
10
-247.236845
20
195.113977
11
-235.239199
21
195.113977
40
5.000000
41
1.192817
50
0.000000
72
5
1
152
0
LINE
8
0
10
-317.238022
20
191.856520
11
-311.639946
21
193.356520
0
LINE
8
0
10
-317.238022
20
191.856520
11
-311.639946
21
190.356520
0
LINE
8
0
10
-165.238022
20
191.856520
11
-170.836098
21
190.356520
0
LINE
8
0
10
-165.238022
20
191.856520
11
-170.836098
21
193.356520
0
LINE
8
0
10
-317.238022
20
191.856520
11
-165.238022
21
191.856520
0
TEXT
8
0
10
-283.903813
20
212.074756
11
-283.903813
21
224.072401
40
5.000000
41
1.192817
50
90.000000
72
5
1
152
0
LINE
8
0
10
-280.646357
20
294.073578
11
-279.146357
21
288.475502
0
LINE
8
0
10
-280.646357
20
294.073578
11
-282.146357
21
288.475502
0
LINE
8
0
10
-280.646357
20
142.073578
11
-282.146357
21
147.671654
0
LINE
8
0
10
-280.646357
20
142.073578
11
-279.146357
21
147.671654
0
LINE
8
0
10
-280.646357
20
294.073578
11
-280.646357
21
142.073578
0
TEXT
8
0
10
-127.305432
20
361.020373
11
-127.305432
21
373.018018
40
5.000000
41
1.192817
50
90.000000
72
5
1
269
0
LINE
8
0
10
-30.446948
20
501.519134
11
-127.047975
21
501.519134
0
LINE
8
0
10
-30.446948
20
232.519257
11
-127.047975
21
232.519257
0
LINE
8
0
10
-124.047975
20
501.519134
11
-122.547975
21
495.921058
0
LINE
8
0
10
-124.047975
20
501.519134
11
-125.547975
21
495.921058
0
LINE
8
0
10
-124.047975
20
232.519257
11
-125.547975
21
238.117334
0
LINE
8
0
10
-124.047975
20
232.519257
11
-122.547975
21
238.117334
0
LINE
8
0
10
-124.047975
20
501.519134
11
-124.047975
21
232.519257
0
TEXT
8
0
10
12.054229
20
194.493786
11
24.051875
21
194.493786
40
5.000000
41
1.192817
50
0.000000
72
5
1
268
0
LINE
8
0
10
-115.946948
20
318.319257
11
-115.946948
21
188.236329
0
LINE
8
0
10
152.053052
20
318.319257
11
152.053052
21
188.236329
0
LINE
8
0
10
-115.946948
20
191.236329
11
-110.348872
21
192.736329
0
LINE
8
0
10
-115.946948
20
191.236329
11
-110.348872
21
189.736329
0
LINE
8
0
10
152.053052
20
191.236329
11
146.454976
21
189.736329
0
LINE
8
0
10
152.053052
20
191.236329
11
146.454976
21
192.736329
0
LINE
8
0
10
-115.946948
20
191.236329
11
152.053052
21
191.236329
0
LINE
8
BOARD
10
-347.995381
20
107.073578
11
-352.238022
21
111.316219
0
LINE
8
BOARD
10
-352.238022
20
111.316219
11
-352.238022
21
517.276494
0
LINE
8
BOARD
10
-352.238022
20
517.276494
11
-347.995381
21
521.519134
0
LINE
8
BOARD
10
-347.995381
20
521.519134
11
167.810411
21
521.519134
0
LINE
8
BOARD
10
167.810411
20
521.519134
11
172.053052
21
517.276494
0
LINE
8
BOARD
10
172.053052
20
517.276494
11
172.053052
21
111.316219
0
LINE
8
BOARD
10
172.053052
20
111.316219
11
167.810411
21
107.073578
0
LINE
8
BOARD
10
167.810411
20
107.073578
11
-347.995381
21
107.073578
0
ENDSEC
0
EOF
